<svg id="svg" version="1.1" width="400" height="109.69072164948454" viewBox="0 0 400 109.69072164948454" xmlns="http://www.w3.org/2000/svg" xmlns:xlink="http://www.w3.org/1999/xlink" ><g id="svgg"><path id="path0" d="" stroke="none" fill="#000000" fill-rule="evenodd"></path><path id="path1" d="M142.333 2.500 C 142.333 3.633,142.345 3.667,142.750 3.667 C 143.137 3.667,143.167 3.724,143.167 4.471 C 143.167 5.113,143.251 5.354,143.583 5.667 C 143.832 5.900,144.000 6.243,144.000 6.517 C 144.000 6.808,144.152 7.096,144.417 7.304 C 144.698 7.524,144.833 7.796,144.833 8.137 C 144.833 8.478,144.969 8.749,145.250 8.970 C 145.513 9.177,145.667 9.466,145.667 9.755 C 145.667 10.028,145.834 10.367,146.083 10.598 C 146.328 10.825,146.500 11.168,146.500 11.431 C 146.500 11.694,146.672 12.038,146.917 12.265 C 147.181 12.510,147.333 12.832,147.333 13.147 C 147.333 13.473,147.472 13.751,147.739 13.962 C 148.038 14.197,148.159 14.475,148.197 15.015 C 148.238 15.589,148.332 15.786,148.625 15.915 C 148.917 16.043,149.000 16.216,149.000 16.700 C 149.000 17.136,149.093 17.371,149.311 17.488 C 149.498 17.588,149.665 17.921,149.729 18.322 C 149.793 18.722,149.960 19.056,150.146 19.155 C 150.331 19.254,150.498 19.588,150.562 19.985 C 150.620 20.350,150.806 20.746,150.975 20.866 C 151.144 20.985,151.336 21.373,151.402 21.727 C 151.483 22.161,151.627 22.398,151.844 22.455 C 152.046 22.507,152.167 22.683,152.167 22.925 C 152.167 23.509,152.462 24.167,152.724 24.167 C 152.877 24.167,152.994 24.449,153.066 24.990 C 153.146 25.587,153.261 25.841,153.486 25.912 C 153.702 25.981,153.831 26.238,153.909 26.755 C 153.997 27.343,154.089 27.500,154.344 27.500 C 154.600 27.500,154.667 27.617,154.667 28.070 C 154.667 28.855,154.814 29.167,155.184 29.167 C 155.433 29.167,155.500 29.289,155.500 29.736 C 155.500 30.517,155.647 30.833,156.008 30.833 C 156.249 30.833,156.325 30.984,156.365 31.542 C 156.405 32.084,156.503 32.288,156.784 32.411 C 157.060 32.532,157.163 32.739,157.201 33.244 C 157.238 33.750,157.341 33.957,157.617 34.078 C 157.905 34.204,157.995 34.402,158.034 34.995 C 158.075 35.627,158.143 35.758,158.450 35.802 C 158.759 35.846,158.824 35.977,158.866 36.635 C 158.909 37.294,158.974 37.425,159.283 37.469 C 159.592 37.513,159.657 37.643,159.700 38.302 C 159.742 38.961,159.807 39.091,160.116 39.135 C 160.425 39.179,160.490 39.310,160.533 39.969 C 160.576 40.634,160.639 40.758,160.958 40.803 C 161.281 40.849,161.333 40.957,161.333 41.577 C 161.333 42.206,161.386 42.310,161.750 42.402 C 162.117 42.494,162.167 42.596,162.167 43.250 C 162.167 43.904,162.217 44.006,162.583 44.098 C 162.948 44.190,163.000 44.293,163.000 44.932 C 163.000 45.570,163.052 45.673,163.417 45.765 C 163.782 45.857,163.833 45.960,163.833 46.601 C 163.833 47.271,163.869 47.333,164.250 47.333 C 164.639 47.333,164.667 47.389,164.667 48.167 C 164.667 48.889,164.711 49.000,165.000 49.000 C 165.268 49.000,165.333 49.111,165.333 49.570 C 165.333 50.355,165.480 50.667,165.851 50.667 C 166.099 50.667,166.167 50.789,166.167 51.236 C 166.167 52.017,166.313 52.333,166.675 52.333 C 166.923 52.333,166.992 52.486,167.033 53.125 C 167.076 53.801,167.138 53.924,167.458 53.970 C 167.762 54.013,167.833 54.129,167.833 54.581 C 167.833 55.355,167.982 55.667,168.351 55.667 C 168.599 55.667,168.667 55.789,168.667 56.236 C 168.667 57.017,168.813 57.333,169.175 57.333 C 169.416 57.333,169.492 57.484,169.532 58.042 C 169.572 58.589,169.669 58.787,169.958 58.915 C 170.262 59.048,170.333 59.213,170.333 59.786 C 170.333 60.398,170.389 60.508,170.742 60.596 C 171.091 60.684,171.157 60.810,171.200 61.474 C 171.242 62.134,171.306 62.258,171.625 62.303 C 171.949 62.349,172.000 62.456,172.000 63.095 C 172.000 63.771,172.035 63.833,172.417 63.833 C 172.806 63.833,172.833 63.889,172.833 64.667 C 172.833 65.444,172.861 65.500,173.250 65.500 C 173.639 65.500,173.667 65.556,173.667 66.333 C 173.667 67.111,173.694 67.167,174.083 67.167 C 174.472 67.167,174.500 67.222,174.500 68.000 C 174.500 68.778,174.528 68.833,174.917 68.833 C 175.306 68.833,175.333 68.889,175.333 69.667 C 175.333 70.444,175.361 70.500,175.750 70.500 C 176.139 70.500,176.167 70.556,176.167 71.333 C 176.167 72.106,176.196 72.167,176.574 72.167 C 176.942 72.167,176.987 72.244,177.033 72.958 C 177.075 73.628,177.140 73.758,177.450 73.802 C 177.759 73.846,177.824 73.977,177.866 74.635 C 177.909 75.294,177.974 75.425,178.283 75.469 C 178.592 75.513,178.657 75.643,178.700 76.302 C 178.742 76.967,178.806 77.091,179.125 77.137 C 179.449 77.183,179.500 77.289,179.500 77.928 C 179.500 78.605,179.535 78.667,179.917 78.667 C 180.306 78.667,180.333 78.722,180.333 79.500 C 180.333 80.222,180.378 80.333,180.667 80.333 C 180.952 80.333,181.000 80.444,181.000 81.106 C 181.000 81.716,181.088 81.960,181.417 82.265 C 181.655 82.485,181.833 82.836,181.833 83.083 C 181.833 83.331,182.012 83.681,182.250 83.902 C 182.479 84.114,182.667 84.468,182.667 84.687 C 182.667 84.907,182.854 85.289,183.083 85.536 C 183.313 85.783,183.500 86.158,183.500 86.369 C 183.500 86.581,183.688 86.956,183.917 87.203 C 184.146 87.450,184.333 87.832,184.333 88.052 C 184.333 88.272,184.521 88.654,184.750 88.901 C 184.979 89.148,185.167 89.523,185.167 89.734 C 185.167 89.945,185.345 90.310,185.562 90.545 C 185.798 90.799,186.005 91.288,186.075 91.755 C 186.161 92.328,186.279 92.561,186.513 92.622 C 186.713 92.674,186.833 92.851,186.833 93.092 C 186.833 93.693,187.132 94.333,187.413 94.333 C 187.564 94.333,187.668 94.484,187.669 94.708 C 187.673 95.375,187.862 95.820,188.185 95.922 C 188.401 95.991,188.500 96.178,188.500 96.519 C 188.500 96.826,188.659 97.174,188.917 97.432 C 189.146 97.661,189.333 98.036,189.333 98.265 C 189.333 98.494,189.516 98.865,189.740 99.088 C 189.994 99.342,190.166 99.730,190.198 100.122 C 190.236 100.580,190.349 100.794,190.617 100.911 C 190.893 101.032,190.997 101.239,191.034 101.744 C 191.071 102.250,191.174 102.457,191.451 102.578 C 191.727 102.699,191.830 102.906,191.867 103.411 C 191.904 103.917,192.008 104.123,192.284 104.244 C 192.560 104.366,192.663 104.572,192.701 105.078 C 192.741 105.625,192.818 105.760,193.116 105.802 C 193.425 105.846,193.490 105.977,193.533 106.635 C 193.576 107.300,193.639 107.425,193.958 107.470 C 194.283 107.516,194.333 107.623,194.333 108.266 C 194.333 109.130,194.724 109.387,195.907 109.300 L 196.583 109.250 196.634 108.469 C 196.676 107.810,196.741 107.679,197.050 107.635 C 197.359 107.591,197.425 107.461,197.467 106.802 C 197.510 106.143,197.575 106.013,197.884 105.969 C 198.194 105.925,198.258 105.795,198.301 105.125 C 198.347 104.410,198.391 104.333,198.759 104.333 C 199.137 104.333,199.167 104.273,199.167 103.500 C 199.167 102.722,199.194 102.667,199.583 102.667 C 199.972 102.667,200.000 102.611,200.000 101.833 C 200.000 101.056,200.028 101.000,200.417 101.000 C 200.806 101.000,200.833 100.944,200.833 100.167 C 200.833 99.389,200.861 99.333,201.250 99.333 C 201.639 99.333,201.667 99.278,201.667 98.500 C 201.667 97.722,201.694 97.667,202.083 97.667 C 202.471 97.667,202.500 97.610,202.500 96.845 C 202.500 96.120,202.544 96.017,202.875 95.970 C 203.195 95.924,203.257 95.801,203.301 95.125 C 203.347 94.410,203.391 94.333,203.759 94.333 C 204.130 94.333,204.167 94.267,204.167 93.595 C 204.167 92.956,204.217 92.849,204.542 92.803 C 204.861 92.758,204.924 92.634,204.967 91.969 C 205.010 91.310,205.075 91.179,205.384 91.135 C 205.693 91.091,205.758 90.961,205.800 90.302 C 205.843 89.643,205.908 89.513,206.217 89.469 C 206.526 89.425,206.591 89.294,206.634 88.635 C 206.676 87.977,206.741 87.846,207.050 87.802 C 207.360 87.758,207.425 87.628,207.467 86.958 C 207.510 86.303,207.574 86.167,207.842 86.167 C 208.120 86.167,208.167 86.048,208.167 85.333 C 208.167 84.556,208.194 84.500,208.583 84.500 C 208.972 84.500,209.000 84.444,209.000 83.667 C 209.000 82.889,209.028 82.833,209.417 82.833 C 209.778 82.833,209.833 82.760,209.833 82.273 C 209.833 81.871,209.950 81.626,210.250 81.400 C 210.521 81.197,210.667 80.924,210.667 80.619 C 210.667 80.334,210.829 80.000,211.083 79.765 C 211.330 79.536,211.500 79.194,211.500 78.927 C 211.500 78.474,211.830 78.000,212.145 78.000 C 212.238 78.000,212.337 77.681,212.365 77.292 C 212.405 76.745,212.502 76.546,212.792 76.419 C 213.073 76.296,213.167 76.115,213.167 75.699 C 213.167 75.150,213.474 74.667,213.821 74.667 C 213.920 74.667,214.000 74.399,214.000 74.071 C 214.000 73.489,214.299 73.000,214.655 73.000 C 214.753 73.000,214.833 72.713,214.833 72.361 C 214.833 71.851,214.917 71.678,215.250 71.500 C 215.553 71.338,215.668 71.138,215.672 70.764 C 215.678 70.216,215.997 69.667,216.310 69.667 C 216.415 69.667,216.500 69.450,216.500 69.186 C 216.500 68.848,216.597 68.680,216.829 68.620 C 217.063 68.558,217.189 68.335,217.268 67.844 C 217.335 67.425,217.499 67.090,217.688 66.989 C 217.873 66.889,218.041 66.555,218.104 66.155 C 218.168 65.755,218.335 65.421,218.521 65.322 C 218.707 65.223,218.874 64.889,218.938 64.489 C 219.001 64.095,219.169 63.755,219.348 63.659 C 219.516 63.569,219.704 63.216,219.768 62.873 C 219.832 62.530,220.020 62.154,220.185 62.037 C 220.351 61.920,220.539 61.545,220.602 61.204 C 220.665 60.862,220.853 60.487,221.019 60.370 C 221.184 60.253,221.372 59.878,221.435 59.537 C 221.499 59.196,221.686 58.821,221.852 58.704 C 222.018 58.586,222.203 58.224,222.264 57.898 C 222.326 57.573,222.554 57.128,222.771 56.911 C 222.989 56.693,223.167 56.329,223.167 56.102 C 223.167 55.839,223.285 55.652,223.491 55.586 C 223.722 55.513,223.847 55.270,223.926 54.747 C 224.003 54.233,224.131 53.981,224.351 53.911 C 224.598 53.833,224.667 53.650,224.667 53.072 C 224.667 52.458,224.720 52.333,224.982 52.333 C 225.348 52.333,225.500 52.022,225.500 51.276 C 225.500 50.886,225.599 50.702,225.875 50.581 C 226.162 50.455,226.262 50.255,226.300 49.724 C 226.342 49.149,226.420 49.014,226.759 48.929 C 227.114 48.840,227.167 48.733,227.167 48.092 C 227.167 47.456,227.217 47.349,227.542 47.303 C 227.861 47.258,227.924 47.134,227.967 46.469 C 228.010 45.810,228.075 45.679,228.384 45.635 C 228.693 45.591,228.758 45.461,228.800 44.802 C 228.843 44.143,228.908 44.013,229.217 43.969 C 229.516 43.926,229.592 43.791,229.633 43.231 C 229.673 42.692,229.771 42.506,230.092 42.360 C 230.426 42.207,230.500 42.053,230.500 41.504 C 230.500 40.952,230.557 40.833,230.822 40.833 C 231.255 40.833,231.429 40.239,231.095 39.904 C 230.618 39.428,230.756 38.269,231.375 37.547 C 232.062 36.747,232.168 36.672,232.625 36.669 C 232.910 36.667,233.000 36.570,233.000 36.262 C 233.000 35.968,233.104 35.842,233.375 35.803 C 233.694 35.758,233.758 35.634,233.800 34.969 C 233.843 34.310,233.908 34.179,234.217 34.135 C 234.527 34.091,234.591 33.961,234.634 33.292 C 234.675 32.654,234.744 32.500,234.990 32.500 C 235.302 32.500,235.494 32.070,235.498 31.359 C 235.499 31.116,235.620 30.937,235.818 30.886 C 236.143 30.801,236.327 30.378,236.331 29.708 C 236.332 29.491,236.436 29.333,236.577 29.333 C 236.896 29.333,237.167 28.814,237.167 28.204 C 237.167 27.850,237.278 27.669,237.583 27.530 C 237.927 27.374,238.000 27.223,238.000 26.670 C 238.000 26.124,238.058 26.000,238.316 26.000 C 238.686 26.000,238.833 25.688,238.833 24.903 C 238.833 24.455,238.901 24.333,239.149 24.333 C 239.520 24.333,239.667 24.022,239.667 23.236 C 239.667 22.778,239.732 22.667,240.000 22.667 C 240.289 22.667,240.333 22.556,240.333 21.833 C 240.333 21.056,240.361 21.000,240.750 21.000 C 241.139 21.000,241.167 20.944,241.167 20.167 C 241.167 19.389,241.194 19.333,241.583 19.333 C 241.972 19.333,242.000 19.278,242.000 18.500 C 242.000 17.722,242.028 17.667,242.417 17.667 C 242.806 17.667,242.833 17.611,242.833 16.833 C 242.833 16.056,242.861 16.000,243.250 16.000 C 243.632 16.000,243.667 15.938,243.667 15.262 C 243.667 14.623,243.717 14.516,244.042 14.470 C 244.361 14.425,244.424 14.300,244.467 13.635 C 244.510 12.977,244.575 12.846,244.884 12.802 C 245.193 12.758,245.258 12.628,245.300 11.969 C 245.343 11.310,245.408 11.179,245.717 11.135 C 246.026 11.091,246.091 10.961,246.134 10.302 C 246.176 9.643,246.241 9.513,246.550 9.469 C 246.859 9.425,246.925 9.294,246.967 8.635 C 247.010 7.977,247.075 7.846,247.384 7.802 C 247.693 7.758,247.758 7.628,247.800 6.969 C 247.843 6.310,247.908 6.179,248.217 6.135 C 248.527 6.091,248.591 5.961,248.634 5.292 C 248.680 4.577,248.725 4.500,249.092 4.500 C 249.468 4.500,249.500 4.437,249.500 3.706 C 249.500 3.043,249.562 2.885,249.875 2.748 C 250.303 2.560,250.455 1.931,250.159 1.574 C 249.986 1.365,242.866 1.333,196.146 1.333 L 142.333 1.333 142.333 2.500 " stroke="none" fill="#ffffff" fill-rule="evenodd"></path><path id="path2" d="" stroke="none" fill="#005500" fill-rule="evenodd"></path><path id="path3" d="M31.167 43.616 C 31.167 45.207,31.223 45.819,31.375 45.878 C 31.537 45.940,31.572 45.485,31.532 43.854 C 31.462 40.988,31.167 40.794,31.167 43.616 M1.379 50.333 C 1.379 50.746,1.411 50.915,1.451 50.708 C 1.491 50.502,1.491 50.165,1.451 49.958 C 1.411 49.752,1.379 49.921,1.379 50.333 M58.367 50.113 C 58.523 50.154,58.699 50.339,58.757 50.523 C 58.816 50.708,58.900 50.822,58.945 50.777 C 59.111 50.612,58.646 50.001,58.369 50.019 C 58.102 50.037,58.102 50.043,58.367 50.113 M329.905 50.262 C 330.049 50.406,330.167 50.606,330.167 50.706 C 330.167 50.807,330.210 50.845,330.264 50.792 C 330.398 50.657,330.027 50.000,329.816 50.000 C 329.721 50.000,329.761 50.118,329.905 50.262 M312.500 54.833 C 312.500 57.248,312.557 58.484,312.667 58.417 C 312.769 58.353,312.833 56.974,312.833 54.833 C 312.833 52.693,312.769 51.313,312.667 51.250 C 312.557 51.183,312.500 52.418,312.500 54.833 M330.667 64.750 C 330.667 72.665,330.723 76.652,330.833 76.583 C 330.942 76.516,331.000 72.390,331.000 64.750 C 331.000 57.110,330.942 52.984,330.833 52.917 C 330.723 52.848,330.667 56.835,330.667 64.750 M49.276 58.348 C 49.000 58.670,49.000 58.691,49.265 58.639 C 49.423 58.608,49.571 58.452,49.595 58.292 C 49.648 57.924,49.637 57.926,49.276 58.348 M78.375 58.944 C 78.000 59.095,78.081 72.227,78.458 72.513 C 78.619 72.635,78.675 72.648,78.583 72.542 C 78.475 72.418,78.446 69.980,78.500 65.592 C 78.546 61.875,78.583 58.839,78.583 58.846 C 78.583 58.854,78.490 58.897,78.375 58.944 M32.532 59.346 C 32.565 59.444,32.665 59.531,32.754 59.538 C 32.844 59.545,33.015 59.670,33.134 59.817 C 33.321 60.046,33.328 60.033,33.180 59.728 C 33.004 59.362,32.423 59.020,32.532 59.346 M145.833 66.750 C 145.833 70.998,145.890 73.151,146.000 73.083 C 146.106 73.018,146.167 70.724,146.167 66.750 C 146.167 62.776,146.106 60.482,146.000 60.417 C 145.890 60.349,145.833 62.502,145.833 66.750 M63.358 62.601 C 63.234 62.741,63.166 62.888,63.206 62.929 C 63.247 62.969,63.416 62.852,63.582 62.668 C 63.749 62.484,63.817 62.336,63.734 62.340 C 63.651 62.343,63.482 62.461,63.358 62.601 M312.333 63.750 C 312.447 63.887,312.616 64.000,312.707 64.000 C 312.800 64.000,312.782 63.889,312.667 63.750 C 312.553 63.612,312.384 63.500,312.293 63.500 C 312.200 63.500,312.218 63.611,312.333 63.750 M35.230 65.583 C 35.231 66.683,35.258 67.112,35.290 66.535 C 35.323 65.959,35.323 65.059,35.290 64.535 C 35.257 64.012,35.230 64.483,35.230 65.583 M368.397 65.583 C 368.397 66.683,368.424 67.112,368.457 66.535 C 368.490 65.959,368.489 65.059,368.456 64.535 C 368.423 64.012,368.397 64.483,368.397 65.583 M314.167 69.657 C 314.167 70.330,314.238 70.833,314.333 70.833 C 314.427 70.833,314.500 70.364,314.500 69.760 C 314.500 69.169,314.425 68.640,314.333 68.583 C 314.228 68.518,314.167 68.915,314.167 69.657 M1.392 70.250 C 1.392 71.075,1.420 71.434,1.455 71.047 C 1.490 70.660,1.490 69.985,1.456 69.547 C 1.422 69.109,1.393 69.425,1.392 70.250 M382.333 70.960 C 382.333 71.045,382.483 71.251,382.667 71.417 C 382.856 71.588,383.000 71.635,383.000 71.526 C 383.000 71.420,382.925 71.333,382.833 71.333 C 382.742 71.333,382.685 71.249,382.708 71.146 C 382.731 71.043,382.656 70.924,382.542 70.882 C 382.427 70.840,382.333 70.875,382.333 70.960 M49.000 71.661 C 49.000 71.756,49.058 71.833,49.128 71.833 C 49.198 71.833,49.384 72.040,49.540 72.292 C 49.697 72.544,49.826 72.661,49.829 72.552 C 49.831 72.442,49.757 72.306,49.664 72.248 C 49.571 72.191,49.535 72.078,49.585 71.997 C 49.635 71.916,49.524 71.769,49.338 71.669 C 49.110 71.547,49.000 71.545,49.000 71.661 M159.830 78.921 C 159.518 79.296,159.699 79.340,160.071 78.978 C 160.247 78.807,160.313 78.667,160.216 78.667 C 160.120 78.667,159.946 78.781,159.830 78.921 M58.377 79.748 C 58.255 79.885,58.235 80.022,58.327 80.079 C 58.413 80.132,58.565 80.024,58.664 79.838 C 58.870 79.453,58.687 79.395,58.377 79.748 M145.833 86.073 C 145.833 89.358,145.893 91.167,146.000 91.167 C 146.107 91.167,146.167 89.392,146.167 86.177 C 146.167 83.030,146.105 81.148,146.000 81.083 C 145.890 81.016,145.833 82.720,145.833 86.073 " stroke="none" fill="#00b600" fill-rule="evenodd"></path><path id="path4" d="M349.208 33.891 C 349.002 34.095,348.832 34.372,348.831 34.506 C 348.829 34.717,348.805 34.716,348.659 34.500 C 348.428 34.161,348.542 35.092,348.801 35.667 C 349.230 36.618,349.340 36.667,351.060 36.667 L 352.667 36.667 352.667 43.750 L 352.667 50.833 352.182 50.833 C 351.784 50.833,351.713 50.776,351.783 50.508 C 351.913 50.011,351.557 49.981,346.083 50.035 C 341.211 50.082,341.083 50.092,341.083 50.417 C 341.083 50.696,340.955 50.758,340.292 50.801 C 339.577 50.847,339.500 50.891,339.500 51.259 C 339.500 51.631,339.435 51.667,338.745 51.667 C 338.179 51.667,337.962 51.740,337.879 51.958 C 337.719 52.382,337.444 52.620,337.207 52.541 C 337.087 52.501,337.000 52.616,337.000 52.812 C 337.000 52.999,336.813 53.339,336.583 53.568 C 336.354 53.797,336.167 54.171,336.167 54.397 C 336.167 54.699,336.065 54.825,335.792 54.863 C 335.473 54.909,335.409 55.033,335.367 55.692 C 335.322 56.374,335.263 56.482,334.875 56.579 C 334.528 56.666,334.486 56.722,334.675 56.842 C 334.841 56.947,334.852 56.996,334.708 56.997 C 334.563 56.999,334.500 57.329,334.500 58.083 C 334.500 58.943,334.448 59.167,334.246 59.167 C 334.106 59.167,333.924 59.345,333.841 59.564 C 333.596 60.207,333.630 70.503,333.878 70.810 C 334.041 71.012,334.041 71.038,333.875 70.939 C 333.625 70.788,333.610 70.995,333.829 71.572 C 333.919 71.808,334.106 72.000,334.246 72.000 C 334.451 72.000,334.500 72.241,334.500 73.247 C 334.500 74.431,334.521 74.499,334.908 74.596 C 335.258 74.684,335.324 74.810,335.367 75.474 C 335.411 76.157,335.461 76.248,335.792 76.237 C 336.093 76.226,336.167 76.314,336.167 76.680 C 336.167 76.973,336.331 77.277,336.625 77.527 C 336.877 77.741,337.083 78.067,337.083 78.250 C 337.083 78.488,337.212 78.598,337.534 78.635 C 337.803 78.666,338.025 78.817,338.087 79.010 C 338.156 79.229,338.400 79.367,338.845 79.438 C 339.394 79.526,339.500 79.607,339.500 79.938 C 339.500 80.293,339.574 80.333,340.218 80.333 C 340.802 80.333,340.967 80.403,341.102 80.708 C 341.193 80.915,341.245 80.971,341.217 80.833 C 341.178 80.644,341.221 80.654,341.393 80.875 C 341.599 81.139,342.017 81.167,345.807 81.167 L 349.994 81.167 350.098 80.750 C 350.192 80.377,350.287 80.333,351.018 80.333 C 351.758 80.333,351.833 80.298,351.833 79.950 C 351.833 79.623,351.957 79.540,352.658 79.397 L 353.483 79.228 353.533 79.739 L 353.583 80.250 361.292 80.287 L 369.000 80.324 369.000 79.162 L 369.000 78.000 367.417 78.000 L 365.833 78.000 365.833 55.988 C 365.833 37.133,365.799 33.942,365.595 33.738 C 365.395 33.538,364.093 33.502,357.470 33.510 L 349.583 33.520 349.208 33.891 M320.338 35.578 C 320.068 35.865,319.765 36.000,319.388 36.000 C 318.908 36.000,318.833 36.056,318.833 36.415 C 318.833 36.745,318.757 36.821,318.459 36.790 C 318.181 36.760,318.070 36.848,318.030 37.130 C 318.000 37.338,317.794 37.691,317.571 37.914 C 317.135 38.350,316.903 45.016,317.333 44.750 C 317.425 44.693,317.500 44.734,317.500 44.841 C 317.500 44.948,317.612 44.992,317.750 44.940 C 317.935 44.869,318.000 44.963,318.000 45.301 C 318.000 45.965,318.425 46.471,319.088 46.595 C 319.506 46.674,319.667 46.791,319.667 47.019 C 319.667 47.285,319.794 47.333,320.500 47.333 C 321.272 47.333,321.333 47.363,321.333 47.739 L 321.333 48.145 324.125 48.114 C 326.913 48.083,326.917 48.083,326.877 47.708 C 326.840 47.360,326.903 47.333,327.752 47.333 C 328.556 47.333,328.667 47.293,328.667 47.000 C 328.667 46.691,328.821 46.598,329.256 46.646 C 329.351 46.657,329.441 46.503,329.456 46.306 C 329.484 45.934,329.806 45.630,330.027 45.767 C 330.097 45.810,330.221 45.599,330.303 45.298 C 330.385 44.996,330.539 44.769,330.646 44.793 C 331.316 44.941,331.353 38.355,330.685 37.815 C 330.467 37.638,330.279 37.326,330.269 37.121 C 330.256 36.870,330.128 36.733,329.875 36.697 C 329.537 36.649,329.423 36.485,329.480 36.125 C 329.491 36.056,329.125 36.000,328.667 36.000 C 327.895 36.000,327.833 35.970,327.833 35.595 L 327.833 35.191 324.284 35.173 L 320.735 35.156 320.338 35.578 M12.919 36.340 C 13.019 36.654,12.215 36.786,10.682 36.707 C 10.244 36.684,9.667 36.991,9.667 37.246 C 9.667 37.485,9.375 37.580,8.858 37.509 C 8.734 37.492,8.678 37.551,8.734 37.640 C 8.791 37.734,8.694 37.766,8.502 37.715 C 8.261 37.653,8.130 37.737,8.024 38.023 C 7.927 38.286,7.747 38.417,7.481 38.417 C 7.194 38.417,7.084 38.509,7.085 38.750 C 7.087 38.973,6.949 39.111,6.669 39.168 C 6.398 39.222,6.231 39.382,6.198 39.618 C 6.169 39.820,5.998 40.031,5.817 40.088 C 5.333 40.242,4.667 40.967,4.667 41.341 C 4.667 41.577,4.552 41.667,4.250 41.667 C 4.021 41.667,3.842 41.723,3.853 41.792 C 3.925 42.245,3.797 42.667,3.589 42.667 C 3.286 42.667,3.000 43.178,3.000 43.720 C 3.000 43.972,2.840 44.233,2.583 44.401 C 2.206 44.648,2.167 44.783,2.167 45.808 C 2.167 46.786,2.112 46.993,1.771 47.313 C 1.188 47.861,1.199 52.741,1.785 53.365 C 2.084 53.683,2.153 53.975,2.181 55.037 C 2.200 55.744,2.279 56.283,2.358 56.235 C 2.436 56.187,2.500 56.224,2.500 56.318 C 2.500 56.412,2.608 56.448,2.741 56.397 C 2.929 56.325,2.993 56.500,3.032 57.194 C 3.076 57.949,3.133 58.083,3.410 58.084 C 3.649 58.084,3.768 58.240,3.856 58.666 C 3.921 58.986,4.130 59.351,4.321 59.478 C 4.511 59.604,4.667 59.886,4.667 60.104 C 4.667 60.382,4.766 60.506,5.000 60.521 C 5.183 60.532,5.408 60.560,5.500 60.583 C 5.592 60.606,5.774 60.634,5.905 60.646 C 6.036 60.657,6.167 60.835,6.197 61.042 C 6.230 61.279,6.384 61.436,6.615 61.469 C 6.842 61.501,6.999 61.658,7.031 61.885 C 7.073 62.175,7.200 62.253,7.653 62.267 C 8.021 62.277,8.326 62.411,8.513 62.642 C 8.734 62.914,8.987 63.000,9.568 63.000 C 10.310 63.000,10.423 63.097,10.363 63.679 C 10.357 63.732,10.742 63.792,11.218 63.814 C 11.694 63.835,12.158 63.934,12.250 64.034 C 12.366 64.160,12.348 64.177,12.192 64.088 C 12.033 63.997,11.985 64.050,12.028 64.272 C 12.079 64.540,12.271 64.590,13.419 64.629 C 14.595 64.669,14.793 64.723,15.117 65.087 C 15.442 65.453,15.619 65.500,16.659 65.500 C 17.806 65.500,17.833 65.510,17.833 65.924 C 17.833 66.166,17.923 66.336,18.042 66.321 C 19.290 66.159,20.333 66.350,20.333 66.741 C 20.333 67.109,20.410 67.153,21.125 67.199 C 21.822 67.244,21.914 67.294,21.897 67.618 C 21.887 67.820,21.924 67.980,21.981 67.973 C 22.563 67.903,22.992 68.045,23.085 68.338 C 23.144 68.523,23.280 68.665,23.388 68.653 C 23.879 68.597,24.333 68.888,24.333 69.259 C 24.333 69.860,24.632 70.500,24.913 70.500 C 25.077 70.500,25.168 70.661,25.172 70.958 C 25.175 71.210,25.185 72.017,25.194 72.750 C 25.219 74.650,25.195 74.833,24.927 74.833 C 24.624 74.833,24.539 74.973,24.415 75.676 C 24.294 76.361,24.264 76.383,23.303 76.488 C 23.240 76.494,23.142 76.650,23.083 76.833 C 23.004 77.083,22.831 77.167,22.396 77.167 C 22.026 77.167,21.854 77.231,21.924 77.344 C 22.220 77.824,21.425 77.989,18.792 77.995 C 16.330 78.000,16.167 77.980,16.167 77.686 C 16.167 77.354,15.744 77.173,14.958 77.169 C 14.621 77.167,14.500 77.084,14.500 76.851 C 14.500 76.655,14.345 76.497,14.089 76.433 C 13.863 76.376,13.492 76.143,13.263 75.915 C 13.035 75.687,12.658 75.500,12.424 75.500 C 12.086 75.500,12.000 75.418,12.000 75.094 C 12.000 74.776,11.902 74.677,11.542 74.636 C 11.212 74.598,11.083 74.490,11.083 74.250 C 11.083 74.031,10.954 73.898,10.708 73.863 C 10.381 73.817,10.245 73.562,10.314 73.125 C 10.324 73.056,10.277 73.009,10.208 73.020 C 9.772 73.089,9.516 72.952,9.470 72.625 C 9.436 72.384,9.283 72.231,9.042 72.197 C 8.765 72.157,8.667 72.032,8.667 71.721 C 8.667 71.413,8.598 71.324,8.417 71.394 C 8.264 71.452,8.167 71.394,8.167 71.245 C 8.167 71.110,8.092 71.000,8.000 71.000 C 7.908 71.000,7.833 70.779,7.833 70.510 C 7.833 70.240,7.747 69.966,7.641 69.901 C 7.522 69.827,7.494 69.855,7.567 69.974 C 7.700 70.189,7.507 70.228,7.250 70.039 C 7.090 69.922,7.012 69.712,6.925 69.167 C 6.903 69.029,6.798 68.907,6.692 68.896 C 6.587 68.884,6.425 68.866,6.333 68.854 C 6.242 68.843,6.167 68.584,6.167 68.278 C 6.167 67.857,6.066 67.669,5.750 67.500 C 5.423 67.325,5.333 67.147,5.333 66.672 C 5.333 66.019,5.096 65.667,4.656 65.667 C 4.453 65.667,4.400 65.559,4.457 65.259 C 4.535 64.853,4.533 64.852,3.143 64.867 C 1.215 64.888,1.347 64.542,1.450 69.301 C 1.500 71.564,1.551 74.291,1.564 75.360 C 1.583 76.930,1.642 77.363,1.870 77.616 C 2.086 77.853,2.165 78.305,2.202 79.506 L 2.250 81.083 3.456 81.132 C 5.005 81.195,5.333 81.025,5.333 80.161 L 5.333 79.500 6.399 79.500 C 7.233 79.500,7.487 79.559,7.569 79.774 C 7.657 80.002,7.633 80.013,7.420 79.836 C 7.211 79.663,7.167 79.673,7.167 79.896 C 7.167 80.045,7.260 80.178,7.375 80.192 C 7.490 80.206,7.658 80.235,7.750 80.256 C 7.842 80.277,8.636 80.304,9.515 80.314 C 11.050 80.333,11.121 80.350,11.303 80.750 C 11.517 81.220,11.872 81.324,11.731 80.875 C 11.645 80.600,11.653 80.599,11.876 80.870 C 12.092 81.131,12.624 81.157,17.806 81.158 L 23.500 81.158 23.500 80.746 C 23.500 80.343,23.530 80.333,24.768 80.333 C 25.759 80.333,26.017 80.285,25.950 80.110 C 25.801 79.722,26.059 79.534,26.833 79.464 C 27.489 79.406,27.578 79.351,27.544 79.032 C 27.511 78.729,27.588 78.667,28.002 78.667 C 28.389 78.667,28.500 78.592,28.500 78.333 C 28.500 78.089,28.611 78.000,28.917 78.000 C 29.146 78.000,29.333 77.913,29.333 77.806 C 29.333 77.699,29.383 77.660,29.443 77.721 C 29.630 77.908,29.986 77.491,29.878 77.210 C 29.822 77.065,29.846 76.986,29.930 77.036 C 30.256 77.230,30.874 76.841,30.785 76.498 C 30.737 76.316,30.766 76.208,30.849 76.260 C 30.932 76.311,31.000 76.238,31.000 76.097 C 31.000 75.956,31.191 75.716,31.425 75.563 C 31.659 75.409,31.812 75.184,31.764 75.061 C 31.715 74.932,31.871 74.737,32.131 74.601 C 32.380 74.470,32.565 74.319,32.542 74.265 C 32.326 73.755,32.532 72.891,32.866 72.903 C 33.204 72.916,33.238 72.826,33.298 71.750 C 33.334 71.108,33.432 70.558,33.516 70.527 C 33.600 70.497,33.630 70.408,33.582 70.331 C 33.534 70.253,33.582 70.135,33.690 70.069 C 33.819 69.989,33.840 70.021,33.753 70.163 C 33.664 70.305,33.697 70.351,33.852 70.299 C 34.039 70.237,34.091 69.465,34.122 66.236 C 34.162 62.098,34.119 61.585,33.749 61.727 C 33.474 61.833,33.335 61.491,33.328 60.695 C 33.323 60.098,32.999 59.454,32.728 59.501 C 32.653 59.514,32.567 59.450,32.536 59.359 C 32.506 59.267,32.654 59.227,32.865 59.268 L 33.250 59.343 32.875 59.177 C 32.655 59.079,32.500 58.864,32.500 58.654 C 32.500 58.458,32.312 58.150,32.082 57.969 C 31.852 57.788,31.707 57.570,31.759 57.485 C 31.941 57.191,31.664 56.678,31.381 56.787 C 31.202 56.856,31.152 56.825,31.232 56.695 C 31.299 56.588,31.279 56.500,31.188 56.500 C 31.097 56.500,30.976 56.354,30.919 56.175 C 30.851 55.961,30.725 55.885,30.547 55.953 C 30.368 56.022,30.319 55.992,30.399 55.862 C 30.475 55.739,30.393 55.659,30.177 55.646 C 29.988 55.634,29.740 55.616,29.625 55.604 C 29.510 55.593,29.393 55.419,29.365 55.218 C 29.328 54.963,29.178 54.838,28.865 54.802 C 28.545 54.765,28.417 54.655,28.417 54.417 C 28.417 54.233,28.304 54.073,28.167 54.061 C 28.029 54.049,27.832 54.030,27.728 54.019 C 27.624 54.009,27.503 53.862,27.459 53.694 C 27.415 53.526,27.275 53.375,27.148 53.358 C 25.690 53.167,25.472 53.100,25.243 52.774 C 25.105 52.577,24.862 52.409,24.704 52.400 C 24.546 52.390,24.215 52.372,23.970 52.358 C 23.682 52.342,23.485 52.214,23.417 52.000 C 23.323 51.706,23.164 51.667,22.054 51.667 C 20.958 51.667,20.735 51.614,20.303 51.250 C 19.888 50.901,19.635 50.833,18.749 50.833 C 17.778 50.833,17.685 50.802,17.637 50.458 C 17.588 50.115,17.484 50.079,16.383 50.035 C 15.356 49.993,15.198 49.947,15.286 49.716 C 15.362 49.519,15.329 49.483,15.167 49.583 C 15.003 49.684,14.972 49.647,15.050 49.444 C 15.139 49.211,15.038 49.167,14.411 49.167 C 14.002 49.167,13.667 49.092,13.667 49.000 C 13.667 48.908,13.557 48.833,13.422 48.833 C 13.273 48.833,13.215 48.736,13.273 48.583 C 13.349 48.384,13.218 48.333,12.630 48.333 C 11.972 48.333,11.892 48.292,11.903 47.961 C 11.911 47.756,11.823 47.578,11.708 47.565 C 11.594 47.552,11.425 47.532,11.333 47.521 C 11.242 47.509,11.167 47.351,11.167 47.170 C 11.167 46.957,11.019 46.803,10.750 46.735 C 10.299 46.622,10.281 46.526,10.294 44.417 C 10.309 42.089,10.301 42.134,10.683 42.255 C 10.981 42.350,11.016 42.314,10.922 42.016 C 10.856 41.810,10.884 41.667,10.989 41.667 C 11.087 41.667,11.167 41.479,11.167 41.250 C 11.167 40.866,11.227 40.833,11.927 40.833 C 12.391 40.833,12.646 40.768,12.583 40.667 C 12.527 40.575,12.568 40.500,12.675 40.500 C 12.782 40.500,12.827 40.391,12.776 40.258 C 12.704 40.070,12.874 40.006,13.550 39.967 C 14.304 39.923,14.424 39.868,14.470 39.542 C 14.553 38.959,17.951 38.954,17.930 39.536 C 17.922 39.771,18.031 39.929,18.228 39.969 C 18.450 40.014,18.503 39.968,18.412 39.808 C 18.309 39.627,18.328 39.624,18.509 39.792 C 18.632 39.906,19.093 40.000,19.533 40.000 C 20.276 40.000,20.333 40.030,20.333 40.417 C 20.333 40.750,20.417 40.833,20.750 40.833 C 21.083 40.833,21.167 40.917,21.167 41.250 C 21.167 41.551,21.256 41.667,21.489 41.667 C 21.666 41.667,21.857 41.813,21.914 41.991 C 21.971 42.170,22.159 42.361,22.333 42.417 C 22.507 42.472,22.696 42.663,22.753 42.842 C 22.809 43.021,22.930 43.167,23.021 43.167 C 23.112 43.167,23.133 43.080,23.067 42.974 C 22.993 42.854,23.022 42.827,23.144 42.902 C 23.251 42.969,23.296 43.093,23.243 43.178 C 23.190 43.264,23.226 43.333,23.323 43.333 C 23.421 43.333,23.500 43.450,23.500 43.593 C 23.500 43.736,23.575 43.807,23.667 43.750 C 23.758 43.693,23.833 43.764,23.833 43.907 C 23.833 44.050,23.941 44.167,24.072 44.167 C 24.203 44.167,24.334 44.335,24.363 44.542 C 24.397 44.779,24.551 44.936,24.781 44.969 C 25.007 45.001,25.167 45.160,25.202 45.385 C 25.233 45.586,25.343 45.734,25.446 45.714 C 25.704 45.664,26.192 46.740,26.063 47.075 C 26.006 47.225,26.025 47.335,26.105 47.320 C 26.605 47.229,26.805 47.378,26.906 47.920 C 26.967 48.243,27.163 48.599,27.342 48.711 C 27.536 48.832,27.667 49.098,27.667 49.373 C 27.667 49.749,27.741 49.833,28.072 49.833 C 28.365 49.833,28.492 49.937,28.530 50.208 C 28.595 50.664,30.474 50.863,30.963 50.467 C 31.163 50.305,31.199 50.302,31.105 50.458 C 30.938 50.738,31.244 50.725,31.478 50.443 C 31.708 50.166,31.557 49.989,31.206 50.123 C 31.031 50.190,30.986 50.158,31.069 50.024 C 31.136 49.914,31.317 49.845,31.471 49.871 C 31.946 49.949,31.979 46.069,31.505 45.918 C 31.188 45.818,31.167 45.676,31.167 43.622 C 31.167 40.846,31.466 40.949,31.546 43.753 C 31.585 45.119,31.600 44.881,31.593 43.000 C 31.584 40.487,31.558 40.252,31.292 40.273 C 31.034 40.294,31.000 40.123,31.000 38.815 C 31.000 38.000,30.994 37.277,30.986 37.208 C 30.915 36.584,28.676 36.449,28.408 37.053 C 28.316 37.259,28.041 37.445,27.750 37.497 C 27.075 37.619,24.731 37.500,24.964 37.356 C 25.498 37.025,24.808 36.771,23.221 36.713 C 22.320 36.680,21.471 36.607,21.333 36.550 C 21.196 36.493,21.030 36.458,20.964 36.472 C 20.899 36.485,20.887 36.387,20.938 36.254 C 21.018 36.046,20.447 36.012,16.923 36.012 C 12.918 36.013,12.818 36.021,12.919 36.340 M232.551 36.782 C 232.313 36.829,232.120 37.053,231.997 37.426 C 231.893 37.740,231.700 38.058,231.568 38.132 C 231.418 38.216,231.313 38.579,231.289 39.092 L 231.250 39.917 232.542 39.965 L 233.833 40.014 233.833 59.007 L 233.833 78.000 232.258 78.000 L 230.682 78.000 230.578 78.553 C 230.521 78.857,230.499 79.363,230.529 79.678 L 230.583 80.250 259.792 80.291 L 289.000 80.332 289.000 79.166 L 289.000 78.000 287.417 78.000 L 285.833 78.000 285.817 67.542 C 285.808 61.790,285.815 56.794,285.831 56.440 C 285.851 56.018,285.800 55.834,285.683 55.907 C 285.570 55.976,285.543 55.916,285.609 55.744 C 285.677 55.567,285.553 55.321,285.262 55.051 C 285.014 54.821,284.851 54.527,284.901 54.398 C 285.021 54.084,284.708 53.288,284.512 53.409 C 284.317 53.530,284.098 53.189,284.090 52.750 C 284.085 52.509,283.969 52.415,283.667 52.412 C 283.333 52.408,283.260 52.333,283.302 52.037 C 283.346 51.722,283.276 51.667,282.833 51.667 C 282.390 51.667,282.320 51.611,282.365 51.295 C 282.411 50.966,282.334 50.918,281.672 50.870 C 280.812 50.808,280.824 50.815,280.789 50.355 C 280.763 50.008,280.735 50.007,275.506 50.045 L 270.250 50.083 270.263 50.458 C 270.273 50.748,270.184 50.833,269.871 50.833 C 269.642 50.833,269.329 51.006,269.153 51.230 C 268.522 52.032,267.410 51.796,267.573 50.894 C 267.739 49.978,268.118 50.019,259.348 50.005 L 251.224 49.992 251.191 51.348 C 251.147 53.128,251.186 53.167,253.020 53.167 L 254.500 53.167 254.500 65.583 L 254.500 78.000 252.847 78.000 C 251.681 78.000,251.170 78.061,251.110 78.208 C 251.043 78.375,251.024 78.375,251.013 78.208 C 251.006 78.094,250.894 78.000,250.764 78.000 C 250.634 78.000,250.490 78.094,250.444 78.208 C 250.376 78.375,250.357 78.375,250.346 78.208 C 250.337 78.061,249.965 78.000,249.085 78.000 L 247.836 78.000 247.793 59.000 L 247.750 40.000 249.220 40.000 C 250.305 40.000,250.756 39.934,250.940 39.750 C 251.078 39.612,251.110 39.500,251.012 39.500 C 250.914 39.500,250.833 39.421,250.833 39.323 C 250.833 39.226,250.909 39.194,251.001 39.250 C 251.108 39.317,251.153 38.912,251.127 38.114 C 251.094 37.123,251.038 36.893,250.849 36.966 C 250.701 37.023,250.656 36.986,250.729 36.867 C 250.843 36.682,233.468 36.601,232.551 36.782 M310.420 49.469 C 310.344 49.666,310.282 49.668,310.040 49.483 C 309.880 49.361,309.804 49.325,309.869 49.402 C 310.034 49.598,309.706 50.167,309.429 50.167 C 309.154 50.167,309.000 50.530,309.000 51.180 C 309.000 51.610,308.941 51.667,308.500 51.667 C 308.121 51.667,308.000 51.591,308.000 51.351 C 308.000 50.982,307.689 50.833,306.915 50.833 C 306.463 50.833,306.346 50.762,306.303 50.458 L 306.250 50.083 301.043 50.048 L 295.836 50.013 295.733 50.423 C 295.642 50.787,295.541 50.833,294.837 50.833 C 294.124 50.833,294.045 50.871,294.063 51.201 C 294.079 51.497,293.956 51.599,293.437 51.723 C 293.049 51.815,292.760 51.993,292.714 52.169 C 292.664 52.362,292.529 52.433,292.319 52.378 C 292.138 52.331,292.000 52.379,292.000 52.490 C 292.000 52.598,291.925 52.640,291.833 52.583 C 291.741 52.526,291.665 52.652,291.664 52.865 C 291.662 53.077,291.475 53.427,291.247 53.642 C 291.020 53.858,290.833 54.205,290.833 54.414 C 290.833 54.622,290.706 54.895,290.551 55.021 C 290.365 55.173,290.311 55.180,290.393 55.044 C 290.474 54.909,290.437 54.868,290.285 54.926 C 290.142 54.981,290.043 55.297,290.026 55.751 C 290.006 56.283,289.886 56.599,289.594 56.890 C 289.197 57.288,289.191 57.337,289.174 60.566 L 289.157 63.839 289.578 64.260 C 289.916 64.598,290.000 64.846,290.000 65.508 C 290.000 66.271,290.031 66.333,290.405 66.333 C 290.698 66.333,290.825 66.437,290.863 66.708 C 290.897 66.946,291.051 67.102,291.281 67.135 C 291.509 67.168,291.666 67.325,291.698 67.552 C 291.731 67.783,291.888 67.936,292.125 67.970 C 292.394 68.008,292.500 68.135,292.500 68.419 C 292.500 68.773,292.584 68.820,293.292 68.866 C 293.727 68.894,294.084 68.992,294.086 69.083 C 294.092 69.475,294.395 69.667,295.010 69.667 C 295.371 69.667,295.676 69.742,295.688 69.833 C 295.699 69.925,295.718 70.094,295.729 70.208 C 295.751 70.427,295.819 70.446,296.732 70.479 C 297.188 70.496,297.317 70.581,297.402 70.917 C 297.504 71.324,297.540 71.333,299.087 71.333 C 300.015 71.333,300.675 71.402,300.688 71.500 C 300.699 71.592,300.718 71.760,300.729 71.875 C 300.743 72.015,301.141 72.099,301.948 72.132 C 303.036 72.176,303.150 72.214,303.198 72.547 C 303.226 72.748,303.390 72.940,303.561 72.973 C 303.769 73.012,303.832 72.966,303.750 72.833 C 303.656 72.681,303.708 72.677,303.969 72.817 C 304.157 72.918,304.529 73.000,304.794 73.000 C 305.140 73.000,305.341 73.120,305.503 73.422 C 305.627 73.655,305.816 73.812,305.921 73.771 C 306.375 73.597,306.537 73.969,306.519 75.138 C 306.499 76.457,306.053 77.167,305.242 77.167 C 304.917 77.167,304.833 77.252,304.833 77.583 L 304.833 78.000 301.917 78.000 C 298.962 78.000,298.912 77.990,298.983 77.396 C 298.996 77.283,298.697 77.203,298.230 77.193 C 297.457 77.178,297.268 77.108,297.229 76.819 C 297.218 76.735,297.199 76.600,297.188 76.519 C 297.176 76.437,297.073 76.374,296.958 76.378 C 295.991 76.414,295.688 76.318,295.637 75.958 C 295.602 75.717,295.449 75.564,295.208 75.530 C 294.958 75.494,294.827 75.356,294.816 75.113 C 294.806 74.914,294.787 74.600,294.774 74.417 C 294.761 74.233,294.581 74.009,294.375 73.919 C 294.169 73.828,294.000 73.656,294.000 73.536 C 294.000 73.416,293.817 73.148,293.593 72.940 C 293.276 72.647,293.175 72.363,293.135 71.658 C 293.093 70.925,293.023 70.742,292.767 70.693 C 292.520 70.646,292.477 70.699,292.569 70.941 C 292.646 71.144,292.630 71.193,292.523 71.083 C 292.433 70.992,292.335 70.467,292.305 69.917 L 292.250 68.917 290.708 68.892 L 289.167 68.867 289.167 74.844 C 289.167 81.760,288.989 81.167,291.061 81.167 C 292.301 81.167,292.312 81.163,292.364 80.708 C 292.393 80.456,292.510 80.241,292.625 80.229 C 292.740 80.218,292.908 80.199,293.000 80.188 C 293.092 80.176,293.167 80.017,293.167 79.833 C 293.167 79.544,293.278 79.500,294.000 79.500 C 294.707 79.500,294.833 79.548,294.833 79.816 C 294.833 80.226,295.146 80.333,296.335 80.333 C 297.219 80.333,297.315 80.368,297.363 80.708 L 297.417 81.083 302.051 81.128 C 306.809 81.173,307.167 81.130,307.167 80.512 C 307.167 80.409,307.519 80.333,308.000 80.333 C 308.778 80.333,308.833 80.306,308.833 79.917 C 308.833 79.525,309.486 79.340,310.375 79.480 C 310.444 79.491,310.491 79.444,310.480 79.375 C 310.403 78.888,310.536 78.667,310.905 78.667 C 311.198 78.667,311.325 78.563,311.363 78.292 C 311.399 78.044,311.514 77.933,311.704 77.965 C 311.892 77.996,312.027 77.868,312.097 77.590 C 312.155 77.357,312.312 77.167,312.445 77.167 C 312.578 77.167,312.641 77.093,312.585 77.002 C 312.525 76.906,312.596 76.881,312.756 76.942 C 312.955 77.018,313.020 76.961,312.995 76.732 C 312.888 75.727,312.997 75.337,313.373 75.377 C 313.718 75.414,313.750 75.341,313.792 74.417 C 313.853 73.102,313.961 72.660,314.211 72.709 C 314.324 72.732,314.398 72.656,314.375 72.542 C 314.352 72.427,314.408 72.333,314.500 72.333 C 314.603 72.333,314.667 71.469,314.667 70.073 C 314.667 68.801,314.602 67.854,314.519 67.905 C 314.438 67.955,314.381 67.868,314.394 67.711 C 314.406 67.553,314.329 67.423,314.222 67.421 C 313.888 67.414,313.839 67.259,313.814 66.110 C 313.795 65.235,313.500 64.202,313.500 65.011 C 313.500 65.157,313.436 65.155,313.250 65.000 C 313.112 64.886,312.999 64.633,312.998 64.438 C 312.994 63.797,312.802 63.346,312.493 63.248 C 312.325 63.194,312.164 62.986,312.136 62.784 C 312.099 62.528,311.950 62.401,311.642 62.366 C 311.375 62.335,311.168 62.188,311.117 61.995 C 311.059 61.772,310.827 61.643,310.350 61.567 C 309.799 61.479,309.667 61.389,309.667 61.104 C 309.666 60.800,309.556 60.744,308.886 60.705 C 307.996 60.654,307.991 60.651,307.958 60.215 C 307.938 59.953,307.792 59.885,307.175 59.855 C 306.638 59.829,306.340 59.719,306.156 59.479 C 305.944 59.203,305.639 59.122,304.539 59.046 C 303.324 58.963,303.179 58.917,303.134 58.603 C 303.088 58.285,302.957 58.248,301.673 58.195 C 300.541 58.148,298.986 57.710,299.755 57.655 C 300.117 57.629,299.212 57.356,298.726 57.345 C 298.316 57.336,298.181 57.246,298.101 56.928 C 298.038 56.675,297.859 56.503,297.625 56.470 C 297.379 56.435,297.250 56.302,297.250 56.083 C 297.250 55.845,297.143 55.754,296.875 55.763 C 296.571 55.774,296.500 55.687,296.500 55.305 C 296.500 54.908,296.569 54.833,296.934 54.833 C 297.248 54.833,297.343 54.765,297.275 54.588 C 297.153 54.270,297.604 53.820,297.923 53.942 C 298.084 54.004,298.141 53.958,298.087 53.810 C 297.877 53.238,298.223 53.162,301.076 53.149 C 303.928 53.137,304.298 53.216,304.088 53.789 C 304.045 53.905,304.137 53.984,304.298 53.970 C 305.233 53.894,305.667 54.008,305.667 54.330 C 305.667 54.543,305.814 54.697,306.083 54.765 C 306.382 54.840,306.500 54.982,306.500 55.268 C 306.500 55.582,306.588 55.667,306.917 55.667 C 307.229 55.667,307.333 55.754,307.333 56.018 C 307.333 56.211,307.516 56.513,307.740 56.688 C 307.987 56.883,308.166 57.218,308.198 57.546 C 308.238 57.955,308.330 58.083,308.583 58.083 C 308.861 58.083,308.931 58.222,309.000 58.917 C 309.053 59.449,309.157 59.736,309.287 59.710 C 309.483 59.671,309.784 60.074,309.816 60.417 C 309.846 60.743,312.115 60.678,312.535 60.339 C 313.302 59.718,313.175 49.769,312.404 50.065 C 312.248 50.125,312.167 50.043,312.167 49.828 C 312.167 49.648,312.087 49.500,311.990 49.500 C 311.893 49.500,311.853 49.437,311.900 49.360 C 311.948 49.283,311.655 49.223,311.249 49.226 C 310.771 49.231,310.478 49.316,310.420 49.469 M45.879 50.325 C 45.998 50.780,45.925 50.808,44.532 50.849 C 43.395 50.882,43.333 50.904,43.333 51.275 C 43.333 51.608,43.245 51.670,42.750 51.688 C 41.822 51.721,41.790 51.733,41.667 52.083 C 41.603 52.265,41.415 52.415,41.250 52.416 C 41.083 52.416,40.928 52.557,40.902 52.733 C 40.851 53.079,40.551 53.327,40.181 53.331 C 40.051 53.332,39.994 53.383,40.054 53.443 C 40.159 53.548,39.773 53.896,39.417 54.018 C 39.104 54.124,38.667 54.574,38.667 54.787 C 38.667 54.904,38.592 55.000,38.500 55.000 C 38.408 55.000,38.342 55.056,38.353 55.125 C 38.425 55.579,38.297 55.788,37.958 55.770 C 37.676 55.755,37.582 55.843,37.579 56.125 C 37.576 56.331,37.407 56.617,37.204 56.760 C 36.945 56.941,36.833 57.189,36.833 57.585 C 36.833 57.967,36.698 58.287,36.417 58.568 C 36.072 58.913,36.000 59.145,36.000 59.916 C 36.000 60.602,35.907 60.972,35.648 61.323 C 35.082 62.089,35.046 69.209,35.605 69.833 C 35.911 70.176,35.987 70.484,36.031 71.570 C 36.071 72.570,36.144 72.906,36.333 72.957 C 36.556 73.018,36.556 73.006,36.333 72.849 C 36.196 72.751,36.162 72.671,36.258 72.669 C 36.626 72.664,36.833 73.096,36.833 73.867 C 36.833 74.556,36.880 74.667,37.167 74.667 C 37.494 74.667,37.585 74.896,37.524 75.564 C 37.488 75.967,37.793 76.333,38.165 76.333 C 38.362 76.333,38.450 76.455,38.437 76.708 C 38.421 76.997,38.503 77.079,38.792 77.063 C 38.998 77.052,39.175 77.127,39.186 77.230 C 39.196 77.333,39.215 77.528,39.228 77.665 C 39.240 77.801,39.438 77.951,39.667 77.998 C 39.896 78.045,40.083 78.196,40.083 78.333 C 40.083 78.493,40.277 78.602,40.621 78.635 C 40.949 78.667,41.284 78.846,41.478 79.094 C 41.654 79.317,41.924 79.500,42.078 79.500 C 42.231 79.500,42.470 79.612,42.607 79.750 C 42.757 79.900,42.781 80.000,42.669 80.000 C 42.565 80.000,42.527 80.075,42.583 80.167 C 42.640 80.258,43.240 80.333,43.917 80.333 C 44.667 80.333,45.193 80.408,45.266 80.526 C 45.343 80.650,45.311 80.673,45.176 80.589 C 45.033 80.500,44.987 80.557,45.028 80.772 C 45.085 81.067,45.368 81.086,50.512 81.132 L 55.936 81.181 56.163 80.757 C 56.381 80.349,57.235 80.180,58.333 80.328 C 58.527 80.354,58.539 80.315,58.386 80.158 C 58.233 80.001,58.240 79.903,58.415 79.727 C 58.736 79.407,58.813 79.443,58.730 79.875 L 58.657 80.250 58.823 79.875 C 58.932 79.629,59.134 79.500,59.411 79.500 C 59.750 79.500,59.833 79.418,59.833 79.083 C 59.833 78.785,59.928 78.661,60.167 78.646 C 60.350 78.634,60.669 78.616,60.875 78.604 C 61.156 78.589,61.263 78.466,61.304 78.112 C 61.339 77.806,61.434 77.670,61.575 77.724 C 61.874 77.838,62.162 77.516,62.042 77.202 C 61.977 77.034,62.010 76.987,62.138 77.066 C 62.271 77.148,62.333 77.021,62.333 76.666 C 62.333 76.226,62.390 76.154,62.698 76.198 C 62.985 76.239,63.068 76.161,63.089 75.833 C 63.145 74.908,63.346 74.566,63.622 74.927 C 63.859 75.239,63.864 75.237,63.756 74.875 C 63.686 74.641,63.715 74.500,63.833 74.500 C 63.936 74.500,64.008 74.369,63.991 74.208 C 63.911 73.415,64.016 73.017,64.333 72.917 C 64.635 72.821,64.667 72.664,64.667 71.253 L 64.667 69.694 63.116 69.694 L 61.566 69.694 61.526 70.292 C 61.499 70.686,61.346 71.010,61.076 71.242 C 60.748 71.524,60.667 71.751,60.667 72.390 C 60.667 72.883,60.603 73.147,60.499 73.083 C 60.261 72.936,59.909 73.345,59.878 73.805 C 59.847 74.269,59.547 74.667,59.230 74.667 C 59.096 74.667,59.000 74.841,59.000 75.083 C 59.000 75.417,58.917 75.500,58.583 75.500 C 58.250 75.500,58.167 75.583,58.167 75.917 C 58.167 76.272,58.087 76.336,57.625 76.353 C 56.633 76.388,56.583 76.409,56.597 76.792 C 56.611 77.201,52.758 77.382,52.167 77.000 C 52.000 76.892,51.986 76.838,52.125 76.836 C 52.240 76.834,52.333 76.754,52.333 76.657 C 52.333 76.560,52.258 76.527,52.167 76.583 C 52.075 76.640,52.000 76.607,52.000 76.510 C 52.000 76.413,51.700 76.333,51.333 76.333 C 50.645 76.333,50.584 76.237,50.622 75.208 C 50.626 75.094,50.559 75.000,50.472 75.000 C 50.385 75.000,50.360 74.925,50.417 74.833 C 50.473 74.742,50.365 74.667,50.177 74.667 C 49.836 74.667,49.687 73.645,49.816 72.193 C 49.837 71.952,49.782 71.845,49.673 71.913 C 49.575 71.974,49.544 72.112,49.605 72.220 C 49.666 72.328,49.553 72.249,49.354 72.045 C 48.802 71.476,48.819 58.787,49.374 58.250 C 49.563 58.067,49.668 58.005,49.606 58.113 C 49.545 58.222,49.577 58.361,49.677 58.423 C 49.796 58.496,49.846 58.369,49.821 58.060 C 49.715 56.732,49.838 55.500,50.077 55.500 C 50.378 55.500,50.667 54.990,50.667 54.460 C 50.667 54.210,50.805 54.003,51.042 53.898 C 51.248 53.807,51.323 53.753,51.208 53.778 C 51.094 53.803,51.000 53.750,51.000 53.661 C 51.000 53.573,51.106 53.500,51.236 53.500 C 51.366 53.500,51.497 53.432,51.528 53.349 C 51.558 53.265,51.731 53.172,51.912 53.140 C 52.093 53.109,52.406 52.896,52.607 52.667 C 52.988 52.231,53.159 52.261,53.239 52.776 C 53.269 52.967,53.420 53.079,53.637 53.071 C 53.878 53.062,54.039 53.206,54.152 53.529 C 54.242 53.788,54.432 54.000,54.575 54.000 C 54.908 54.000,54.935 55.208,54.608 55.480 C 54.484 55.583,53.959 55.677,53.441 55.689 L 52.500 55.711 52.500 56.252 C 52.500 56.549,52.387 56.886,52.250 57.000 C 52.056 57.161,52.000 57.613,52.000 59.026 C 52.000 60.488,52.049 60.863,52.250 60.940 C 52.414 61.003,52.500 61.263,52.500 61.694 C 52.500 62.057,52.559 62.317,52.630 62.272 C 52.702 62.228,52.942 62.467,53.162 62.804 C 53.696 63.618,53.977 63.833,54.503 63.833 C 54.852 63.833,54.940 63.911,54.930 64.208 L 54.917 64.583 58.229 64.636 L 61.542 64.689 61.434 64.261 C 61.330 63.844,61.348 63.833,62.173 63.833 C 62.695 63.833,62.980 63.769,62.917 63.667 C 62.860 63.575,62.893 63.500,62.990 63.500 C 63.087 63.500,63.167 63.345,63.167 63.155 C 63.167 62.791,63.526 62.333,63.812 62.333 C 63.905 62.333,63.952 62.183,63.916 61.999 C 63.880 61.808,64.018 61.484,64.238 61.247 C 64.605 60.851,64.626 60.701,64.654 58.151 L 64.684 55.471 64.249 55.068 C 64.010 54.846,63.858 54.594,63.912 54.507 C 63.966 54.420,63.661 53.990,63.234 53.550 C 62.808 53.110,62.355 52.507,62.228 52.209 C 62.100 51.911,61.941 51.677,61.873 51.687 C 61.182 51.794,60.685 51.635,60.637 51.292 C 60.591 50.969,60.468 50.909,59.753 50.864 C 58.975 50.815,58.672 50.643,58.672 50.250 C 58.672 50.158,58.751 50.196,58.849 50.333 C 59.006 50.556,59.018 50.556,58.957 50.333 C 58.898 50.118,57.991 50.076,52.340 50.033 C 45.808 49.984,45.790 49.984,45.879 50.325 M74.735 50.417 C 74.838 50.827,74.823 50.834,73.795 50.853 C 72.337 50.879,72.288 50.888,72.201 51.148 C 72.147 51.308,72.194 51.337,72.353 51.241 C 72.546 51.125,72.548 51.147,72.362 51.376 C 72.239 51.527,71.837 51.671,71.458 51.699 C 71.060 51.729,70.744 51.847,70.700 51.982 C 70.653 52.122,70.698 52.167,70.812 52.097 C 70.915 52.033,71.000 52.060,71.000 52.157 C 71.000 52.254,70.869 52.341,70.708 52.351 C 70.548 52.361,70.267 52.380,70.083 52.393 C 69.869 52.408,69.750 52.536,69.750 52.750 C 69.750 53.123,69.419 53.406,69.165 53.249 C 69.072 53.192,69.000 53.334,69.000 53.573 C 69.000 53.976,68.859 54.075,68.375 54.012 C 68.256 53.997,68.167 54.167,68.167 54.409 C 68.167 54.801,67.946 54.936,67.446 54.849 C 67.370 54.836,67.343 54.883,67.385 54.954 C 67.545 55.226,67.168 55.833,66.839 55.833 C 66.470 55.833,66.371 56.254,66.708 56.390 C 66.875 56.457,66.875 56.476,66.708 56.487 C 66.594 56.494,66.500 56.678,66.500 56.896 C 66.500 57.114,66.373 57.395,66.218 57.521 C 65.979 57.715,65.957 57.715,66.075 57.520 C 66.170 57.361,66.142 57.314,65.982 57.367 C 65.829 57.417,65.733 57.763,65.700 58.382 C 65.659 59.151,65.575 59.381,65.236 59.648 C 64.870 59.936,64.856 59.982,65.119 60.051 C 65.396 60.123,65.397 60.129,65.125 60.147 C 64.854 60.165,64.833 60.536,64.833 65.440 C 64.833 70.267,64.858 70.732,65.125 70.935 C 65.402 71.145,65.401 71.156,65.116 71.161 C 64.862 71.166,64.883 71.226,65.245 71.542 C 65.601 71.851,65.679 72.070,65.693 72.801 C 65.707 73.492,65.762 73.666,65.947 73.595 C 66.078 73.544,66.139 73.577,66.082 73.669 C 66.026 73.759,66.097 73.833,66.240 73.833 C 66.487 73.833,66.586 74.275,66.510 75.036 C 66.492 75.217,66.638 75.362,66.907 75.429 C 67.282 75.523,67.424 75.776,67.350 76.216 C 67.338 76.289,67.423 76.337,67.539 76.321 C 68.024 76.258,68.167 76.356,68.167 76.750 C 68.167 76.979,68.223 77.158,68.292 77.147 C 68.784 77.069,69.000 77.202,69.000 77.583 C 69.000 77.889,69.089 78.000,69.333 78.000 C 69.632 78.000,69.745 78.173,69.686 78.542 C 69.676 78.610,69.820 78.667,70.007 78.667 C 70.194 78.667,70.513 78.828,70.715 79.025 C 70.918 79.221,70.990 79.329,70.875 79.265 C 70.760 79.200,70.667 79.226,70.667 79.323 C 70.667 79.421,70.994 79.500,71.396 79.500 C 71.880 79.500,72.203 79.595,72.355 79.782 C 72.549 80.021,72.549 80.043,72.353 79.925 C 72.194 79.830,72.147 79.858,72.201 80.018 C 72.287 80.275,72.347 80.287,73.682 80.314 C 74.502 80.331,74.636 80.383,74.801 80.746 L 74.989 81.159 80.703 81.101 C 87.093 81.035,87.000 81.042,87.000 80.631 C 87.000 80.371,87.162 80.333,88.269 80.333 C 89.469 80.333,89.534 80.315,89.449 79.990 C 89.348 79.605,89.463 79.541,90.417 79.453 C 90.987 79.401,91.078 79.340,91.044 79.029 C 91.011 78.732,91.090 78.667,91.483 78.667 C 91.831 78.667,91.957 78.589,91.940 78.386 C 91.924 78.194,92.094 78.068,92.474 77.987 C 93.115 77.851,93.336 77.671,93.405 77.230 C 93.434 77.049,93.566 76.937,93.719 76.964 C 93.958 77.006,94.365 76.499,94.425 76.083 C 94.438 75.992,94.461 75.828,94.475 75.720 C 94.489 75.612,94.669 75.499,94.875 75.470 C 95.143 75.432,95.256 75.297,95.271 75.000 C 95.282 74.771,95.301 74.385,95.312 74.144 C 95.327 73.834,95.420 73.711,95.625 73.727 C 95.859 73.745,95.927 73.593,95.967 72.958 C 95.995 72.523,96.098 72.167,96.196 72.167 C 96.303 72.167,96.283 72.050,96.145 71.875 C 95.937 71.610,95.943 71.604,96.212 71.815 C 96.772 72.255,96.785 72.196,96.813 69.157 C 96.824 67.868,96.899 66.854,96.979 66.904 C 97.059 66.953,97.102 67.445,97.075 67.997 C 97.041 68.682,97.087 69.001,97.221 69.003 C 97.336 69.004,97.315 69.070,97.170 69.161 C 96.962 69.292,96.996 69.394,97.378 69.793 C 97.793 70.226,97.833 70.381,97.833 71.548 C 97.833 72.773,97.851 72.831,98.250 72.932 C 98.650 73.032,98.786 73.466,98.679 74.292 C 98.664 74.406,98.730 74.509,98.826 74.521 C 98.922 74.532,99.093 74.551,99.208 74.563 C 99.322 74.574,99.482 74.900,99.564 75.288 C 99.649 75.691,99.827 76.029,99.981 76.079 C 100.129 76.127,100.337 76.354,100.443 76.583 C 100.568 76.855,100.574 76.962,100.459 76.891 C 100.355 76.827,100.331 76.861,100.401 76.974 C 100.466 77.080,100.657 77.167,100.825 77.167 C 101.015 77.167,101.172 77.331,101.239 77.601 C 101.322 77.930,101.428 78.014,101.676 77.949 C 101.886 77.894,102.063 77.972,102.165 78.164 C 102.254 78.330,102.609 78.533,102.955 78.615 C 103.457 78.734,103.579 78.838,103.563 79.132 C 103.545 79.468,103.620 79.500,104.442 79.500 C 105.312 79.500,105.337 79.513,105.237 79.909 C 105.135 80.315,105.146 80.319,106.442 80.368 C 107.726 80.416,107.749 80.424,107.708 80.833 C 107.678 81.124,107.710 81.181,107.812 81.024 C 107.918 80.861,107.991 80.851,108.076 80.988 C 108.161 81.125,109.731 81.173,113.680 81.160 L 119.167 81.141 119.167 80.737 C 119.167 80.345,119.204 80.333,120.428 80.333 C 121.750 80.333,122.333 80.153,122.333 79.744 C 122.333 79.610,122.483 79.500,122.665 79.500 C 122.848 79.500,123.190 79.331,123.426 79.125 C 123.661 78.919,124.093 78.712,124.385 78.667 C 124.678 78.621,124.926 78.490,124.938 78.375 C 124.949 78.260,124.968 78.093,124.979 78.002 C 124.991 77.911,125.169 77.855,125.375 77.877 C 125.674 77.909,125.751 77.832,125.754 77.500 C 125.757 77.170,125.843 77.082,126.170 77.079 C 126.491 77.076,126.579 76.992,126.563 76.704 C 126.550 76.455,126.639 76.333,126.835 76.333 C 127.205 76.333,127.534 75.943,127.493 75.552 C 127.407 74.722,127.494 74.476,127.838 74.585 C 128.023 74.644,128.164 74.630,128.151 74.554 C 128.000 73.684,128.190 73.000,128.583 73.000 C 128.968 73.000,129.206 71.533,129.022 70.298 C 129.012 70.232,129.123 70.224,129.269 70.280 C 129.754 70.466,129.808 69.968,129.821 65.177 C 129.834 60.435,129.772 59.860,129.269 60.053 C 129.123 60.109,129.012 60.101,129.022 60.036 C 129.206 58.801,128.968 57.333,128.583 57.333 C 128.194 57.333,128.167 57.278,128.167 56.500 C 128.167 55.778,128.122 55.667,127.833 55.667 C 127.589 55.667,127.500 55.556,127.500 55.250 C 127.500 55.021,127.429 54.833,127.343 54.833 C 127.256 54.833,127.212 54.696,127.245 54.528 C 127.279 54.352,127.207 54.222,127.076 54.222 C 126.950 54.222,126.888 54.303,126.936 54.403 C 126.985 54.502,126.909 54.441,126.768 54.267 C 126.626 54.093,126.552 53.884,126.603 53.801 C 126.760 53.547,126.307 53.153,125.976 53.257 C 125.745 53.331,125.667 53.271,125.667 53.021 C 125.667 52.621,125.561 52.545,124.833 52.417 C 124.113 52.290,123.957 52.185,124.067 51.900 C 124.125 51.747,124.039 51.667,123.816 51.667 C 123.406 51.667,122.937 51.237,123.085 50.997 C 123.144 50.903,123.130 50.836,123.054 50.849 C 122.086 51.017,120.852 50.803,120.803 50.458 L 120.750 50.083 113.966 50.046 C 107.047 50.008,106.727 50.035,107.194 50.632 C 107.395 50.888,107.388 50.894,107.125 50.688 C 106.934 50.538,106.833 50.524,106.833 50.646 C 106.833 50.759,106.511 50.833,106.022 50.833 C 105.285 50.833,105.212 50.868,105.230 51.208 C 105.248 51.547,105.164 51.588,104.361 51.634 C 103.651 51.675,103.491 51.736,103.567 51.935 C 103.632 52.104,103.489 52.260,103.123 52.419 C 102.826 52.548,102.654 52.657,102.740 52.660 C 103.066 52.674,102.233 53.156,101.875 53.161 C 101.669 53.164,101.500 53.246,101.500 53.343 C 101.500 53.440,101.429 53.476,101.342 53.422 C 101.255 53.368,101.211 53.463,101.243 53.632 C 101.277 53.807,101.158 54.029,100.967 54.149 C 100.719 54.304,100.664 54.306,100.756 54.157 C 100.835 54.030,100.796 53.984,100.648 54.033 C 100.521 54.075,100.390 54.289,100.358 54.509 C 100.326 54.729,100.120 55.076,99.900 55.280 C 99.679 55.484,99.500 55.841,99.500 56.075 C 99.500 56.349,99.408 56.500,99.240 56.500 C 99.097 56.500,99.026 56.574,99.082 56.665 C 99.142 56.761,99.071 56.786,98.911 56.725 C 98.712 56.648,98.647 56.706,98.671 56.935 C 98.765 57.814,98.662 58.132,98.250 58.235 C 97.850 58.335,97.833 58.392,97.833 59.641 C 97.833 60.811,97.792 60.981,97.419 61.331 C 97.104 61.627,97.011 61.874,97.030 62.361 C 97.043 62.713,97.005 63.051,96.944 63.112 C 96.883 63.172,96.833 62.118,96.833 60.768 C 96.833 59.174,96.775 58.350,96.667 58.417 C 96.575 58.473,96.500 58.440,96.500 58.343 C 96.500 58.246,96.392 58.167,96.259 58.167 C 96.090 58.167,96.003 57.931,95.967 57.375 C 95.928 56.761,95.855 56.588,95.642 56.604 C 95.357 56.625,95.076 55.782,95.265 55.476 C 95.406 55.247,94.985 54.803,94.723 54.904 C 94.600 54.951,94.491 54.879,94.479 54.745 C 94.468 54.610,94.449 54.406,94.438 54.292 C 94.426 54.177,94.323 54.074,94.208 54.063 C 94.094 54.051,93.930 54.032,93.845 54.021 C 93.760 54.009,93.666 53.834,93.637 53.632 C 93.603 53.402,93.427 53.224,93.167 53.159 C 92.938 53.101,92.768 52.968,92.790 52.864 C 92.813 52.759,92.604 52.557,92.327 52.413 C 92.049 52.270,91.862 52.089,91.910 52.010 C 92.028 51.821,91.594 51.667,90.943 51.667 C 90.553 51.667,90.369 51.567,90.248 51.292 C 90.112 50.983,89.930 50.908,89.214 50.866 C 88.525 50.827,88.278 50.732,88.023 50.408 L 87.702 50.000 81.166 50.000 L 74.631 50.000 74.735 50.417 M130.000 50.482 C 130.000 50.891,129.946 50.944,129.599 50.877 C 129.204 50.802,129.198 50.820,129.224 51.942 L 129.250 53.083 130.875 53.131 L 132.500 53.179 132.500 72.589 L 132.500 92.000 130.958 92.020 C 130.110 92.031,129.358 92.030,129.287 92.018 C 129.215 92.006,129.167 92.707,129.180 93.576 L 129.204 95.154 141.423 95.163 C 152.965 95.172,153.648 95.156,153.736 94.878 C 153.866 94.466,153.815 92.825,153.674 92.912 C 153.611 92.951,153.564 92.823,153.571 92.627 C 153.589 92.101,153.145 92.035,149.478 92.017 C 146.352 92.001,146.202 91.985,146.118 91.666 C 146.070 91.482,146.101 91.376,146.187 91.429 C 146.386 91.552,146.306 81.032,146.105 80.618 C 145.896 80.191,146.355 80.317,146.584 80.750 C 146.840 81.235,156.446 81.367,156.260 80.883 C 156.199 80.724,156.203 80.648,156.269 80.714 C 156.335 80.780,156.509 80.726,156.655 80.594 C 156.801 80.462,157.332 80.330,157.835 80.302 C 158.676 80.254,158.746 80.220,158.698 79.875 C 158.652 79.543,158.718 79.500,159.281 79.497 C 160.008 79.495,160.406 79.300,160.305 78.997 C 160.255 78.849,160.145 78.878,159.924 79.100 C 159.728 79.296,159.642 79.324,159.691 79.176 C 159.785 78.895,160.088 78.721,160.707 78.590 C 160.959 78.537,161.146 78.403,161.124 78.293 C 161.102 78.182,161.257 78.065,161.469 78.033 C 161.863 77.973,161.899 77.919,162.073 77.125 C 162.128 76.873,162.251 76.667,162.346 76.667 C 162.442 76.667,162.467 76.751,162.403 76.855 C 162.333 76.969,162.378 77.013,162.518 76.967 C 162.655 76.922,162.771 76.604,162.801 76.195 C 162.829 75.813,162.923 75.500,163.010 75.500 C 163.096 75.500,163.167 75.387,163.167 75.250 C 163.167 75.112,163.279 75.000,163.417 75.000 C 163.601 75.000,163.667 74.807,163.667 74.260 C 163.667 73.853,163.747 73.470,163.845 73.410 C 163.943 73.349,163.986 73.203,163.940 73.085 C 163.884 72.939,163.973 72.896,164.221 72.950 C 164.514 73.014,164.536 72.995,164.333 72.850 C 164.196 72.752,164.167 72.671,164.269 72.669 C 164.389 72.668,164.466 72.151,164.487 71.219 C 164.504 70.423,164.568 69.692,164.630 69.594 C 164.691 69.497,164.756 69.316,164.774 69.193 C 164.819 68.899,165.000 68.722,165.000 68.972 C 165.000 69.079,165.075 69.167,165.167 69.167 C 165.273 69.167,165.333 67.861,165.333 65.583 C 165.333 63.306,165.273 62.000,165.167 62.000 C 165.075 62.000,164.999 62.094,164.997 62.208 C 164.996 62.351,164.947 62.341,164.842 62.175 C 164.758 62.042,164.722 61.878,164.764 61.811 C 164.805 61.744,164.763 61.643,164.669 61.585 C 164.575 61.527,164.500 60.812,164.500 59.967 C 164.500 58.723,164.448 58.413,164.208 58.226 C 163.936 58.014,163.938 58.007,164.237 58.112 C 164.494 58.202,164.536 58.167,164.446 57.932 C 164.384 57.771,164.333 57.608,164.333 57.570 C 164.333 57.531,164.216 57.500,164.073 57.500 C 163.931 57.500,163.860 57.575,163.917 57.667 C 163.973 57.758,163.952 57.833,163.870 57.833 C 163.788 57.833,163.707 57.477,163.691 57.042 C 163.651 55.971,163.535 55.667,163.165 55.667 C 162.909 55.667,162.842 55.520,162.801 54.875 C 162.755 54.162,162.713 54.088,162.375 54.135 C 162.055 54.180,162.000 54.111,162.000 53.667 C 162.000 53.381,161.932 53.189,161.848 53.241 C 161.585 53.403,161.167 53.144,161.167 52.819 C 161.167 52.625,161.009 52.467,160.750 52.402 C 160.489 52.336,160.333 52.179,160.333 51.982 C 160.333 51.755,160.214 51.667,159.905 51.667 C 159.556 51.667,159.497 51.607,159.582 51.339 C 159.691 50.993,159.477 50.893,158.417 50.796 C 158.043 50.762,157.917 50.666,157.917 50.417 C 157.917 50.092,157.794 50.082,153.045 50.049 L 148.173 50.016 148.212 50.383 C 148.243 50.680,148.155 50.759,147.750 50.796 C 146.764 50.886,146.500 51.000,146.500 51.337 C 146.500 51.578,146.388 51.667,146.083 51.667 C 145.747 51.667,145.661 51.755,145.637 52.125 C 145.620 52.377,145.564 52.021,145.512 51.333 L 145.417 50.083 137.708 50.046 L 130.000 50.010 130.000 50.482 M313.943 50.125 C 313.788 50.375,313.869 52.747,314.040 52.958 C 314.151 53.097,314.704 53.167,315.687 53.167 L 317.167 53.167 317.167 65.583 L 317.167 78.000 315.528 78.000 L 313.889 78.000 313.894 79.162 L 313.900 80.323 323.847 80.331 C 333.965 80.338,334.333 80.322,334.333 79.878 C 334.333 79.671,334.288 79.664,334.080 79.836 C 333.867 80.013,333.843 80.002,333.931 79.774 C 333.988 79.623,334.103 79.500,334.184 79.500 C 334.455 79.500,334.339 79.069,333.958 78.660 C 333.752 78.438,333.602 78.199,333.625 78.128 C 333.648 78.058,332.992 78.000,332.167 78.000 C 330.919 78.000,330.667 77.956,330.667 77.740 C 330.667 77.597,330.742 77.527,330.833 77.583 C 330.933 77.645,331.000 77.443,331.000 77.083 C 331.000 76.724,330.933 76.522,330.833 76.583 C 330.723 76.652,330.667 72.665,330.667 64.750 C 330.667 57.447,330.727 52.851,330.821 52.909 C 330.910 52.964,330.976 52.606,330.976 52.077 C 330.976 51.249,330.933 51.133,330.573 50.996 C 330.287 50.887,330.181 50.732,330.209 50.463 L 330.250 50.083 322.138 50.036 C 317.677 50.010,313.989 50.050,313.943 50.125 M379.012 50.208 C 379.084 50.761,378.975 50.820,377.792 50.868 C 376.683 50.913,376.579 50.948,376.530 51.292 C 376.487 51.595,376.371 51.667,375.919 51.667 C 375.196 51.667,374.833 51.812,374.833 52.101 C 374.833 52.229,374.758 52.343,374.667 52.354 C 374.575 52.366,374.406 52.384,374.292 52.396 C 374.177 52.407,374.074 52.510,374.063 52.625 C 374.051 52.740,374.032 52.908,374.021 53.000 C 374.009 53.092,373.850 53.167,373.667 53.167 C 373.483 53.167,373.333 53.242,373.333 53.333 C 373.333 53.425,373.256 53.500,373.161 53.500 C 372.831 53.500,371.825 54.667,371.725 55.165 C 371.629 55.645,371.504 55.739,371.042 55.679 C 370.872 55.657,370.753 56.151,370.803 56.675 C 370.807 56.726,370.669 56.856,370.495 56.964 C 370.234 57.128,370.195 57.119,370.274 56.914 C 370.326 56.778,370.286 56.667,370.184 56.667 C 370.080 56.667,370.000 56.960,370.000 57.345 C 370.000 57.726,369.890 58.133,369.750 58.274 C 369.600 58.423,369.500 58.448,369.500 58.335 C 369.500 58.232,369.440 58.184,369.366 58.230 C 369.293 58.275,369.214 58.891,369.191 59.599 C 369.160 60.578,369.073 60.984,368.825 61.298 C 368.455 61.769,368.402 62.266,368.708 62.390 C 368.851 62.447,368.838 62.478,368.667 62.487 C 368.200 62.511,368.329 68.959,368.804 69.343 C 369.116 69.595,369.167 69.805,369.167 70.836 C 369.167 71.917,369.208 72.068,369.583 72.363 C 369.885 72.600,370.000 72.851,370.000 73.270 C 370.000 73.666,370.132 73.981,370.419 74.268 C 370.650 74.499,370.853 74.865,370.871 75.082 C 370.889 75.299,370.944 75.473,370.994 75.468 C 371.451 75.428,371.638 75.564,371.725 76.002 C 371.825 76.500,372.831 77.667,373.161 77.667 C 373.256 77.667,373.333 77.742,373.333 77.833 C 373.333 77.925,373.390 77.991,373.458 77.980 C 373.827 77.922,374.000 78.035,374.000 78.333 C 374.000 78.575,374.111 78.667,374.405 78.667 C 374.698 78.667,374.825 78.770,374.863 79.042 C 374.910 79.369,375.029 79.423,375.800 79.467 C 376.568 79.511,376.671 79.558,376.587 79.822 C 376.471 80.187,376.875 80.328,378.049 80.331 C 378.638 80.333,378.944 80.427,379.215 80.691 C 379.515 80.983,379.528 81.030,379.283 80.943 C 379.104 80.880,379.024 80.904,379.085 81.002 C 379.148 81.105,381.270 81.167,384.768 81.167 L 390.349 81.167 390.716 80.754 C 391.014 80.419,391.257 80.336,392.008 80.310 C 392.794 80.284,392.937 80.230,392.958 79.954 C 392.990 79.519,392.979 79.525,393.879 79.478 C 394.579 79.442,394.667 79.395,394.667 79.052 C 394.667 78.750,394.759 78.667,395.093 78.667 C 395.328 78.667,395.483 78.607,395.438 78.534 C 395.319 78.342,395.615 77.920,395.868 77.918 C 395.986 77.917,396.089 77.879,396.097 77.833 C 396.156 77.467,396.569 76.998,396.799 77.036 C 397.000 77.070,397.105 76.934,397.165 76.566 C 397.225 76.202,397.333 76.061,397.529 76.091 C 397.723 76.120,397.789 76.037,397.747 75.817 C 397.713 75.643,397.760 75.500,397.850 75.500 C 397.941 75.500,398.002 75.406,397.988 75.292 C 397.930 74.851,398.012 74.685,398.336 74.583 C 398.520 74.524,398.628 74.406,398.576 74.321 C 398.523 74.236,398.550 74.167,398.636 74.167 C 398.721 74.167,398.798 73.821,398.806 73.399 C 398.815 72.977,398.899 72.539,398.993 72.425 C 399.087 72.312,399.108 72.164,399.040 72.096 C 398.972 72.028,399.029 71.997,399.167 72.028 C 399.616 72.128,399.535 70.838,399.082 70.666 C 398.878 70.589,398.675 70.382,398.629 70.207 C 398.583 70.032,398.442 69.875,398.315 69.858 C 398.187 69.842,397.755 69.783,397.353 69.728 C 396.782 69.649,396.652 69.674,396.755 69.842 C 396.850 69.995,396.809 70.026,396.611 69.950 C 396.410 69.873,396.333 69.934,396.333 70.172 C 396.333 70.352,396.254 70.500,396.157 70.500 C 396.060 70.500,396.035 70.588,396.101 70.695 C 396.184 70.829,396.127 70.854,395.920 70.775 C 395.664 70.676,395.651 70.697,395.833 70.917 C 396.013 71.134,396.004 71.158,395.774 71.069 C 395.549 70.983,395.499 71.080,395.497 71.607 C 395.495 72.071,395.380 72.358,395.085 72.638 C 394.860 72.852,394.682 73.077,394.691 73.138 C 394.747 73.546,394.629 73.833,394.407 73.833 C 394.264 73.833,394.196 73.913,394.257 74.011 C 394.317 74.109,394.228 74.302,394.058 74.440 C 393.889 74.578,393.863 74.634,394.000 74.564 C 394.222 74.450,394.222 74.472,394.000 74.759 C 393.533 75.362,393.358 75.500,393.054 75.503 C 392.692 75.506,392.121 75.827,392.470 75.831 C 392.640 75.833,392.633 75.891,392.440 76.083 C 392.303 76.221,392.082 76.333,391.949 76.333 C 391.816 76.333,391.614 76.446,391.500 76.583 C 391.386 76.721,391.354 76.833,391.430 76.833 C 391.505 76.833,391.485 76.915,391.386 77.014 C 391.201 77.199,385.749 77.305,385.572 77.128 C 385.523 77.078,385.471 76.884,385.456 76.697 C 385.442 76.510,385.390 76.360,385.340 76.365 C 384.841 76.410,384.667 76.291,384.667 75.907 C 384.667 75.672,384.598 75.523,384.513 75.575 C 384.310 75.701,383.803 75.184,383.929 74.979 C 383.984 74.891,383.954 74.728,383.862 74.618 C 383.770 74.507,383.670 74.342,383.639 74.250 C 383.608 74.158,383.502 74.092,383.403 74.102 C 383.189 74.124,383.181 74.080,383.145 72.622 C 383.129 72.002,383.078 71.533,383.030 71.581 C 382.550 72.061,382.333 71.041,382.333 68.308 L 382.333 65.500 390.125 65.474 C 394.410 65.460,398.104 65.457,398.333 65.467 C 398.563 65.478,398.657 65.446,398.543 65.397 C 398.232 65.261,398.589 64.701,399.028 64.637 C 399.228 64.607,399.427 64.471,399.472 64.333 C 399.543 64.118,399.516 64.115,399.273 64.315 C 399.030 64.516,399.006 64.513,399.092 64.286 C 399.147 64.143,399.296 63.986,399.422 63.938 C 399.803 63.791,399.699 61.700,399.305 61.574 C 399.137 61.521,399.000 61.398,399.000 61.302 C 399.000 61.192,399.095 61.204,399.250 61.333 C 399.465 61.512,399.500 61.448,399.500 60.874 C 399.500 60.405,399.405 60.140,399.177 59.979 C 398.912 59.791,398.839 59.482,398.768 58.250 C 398.720 57.425,398.678 56.736,398.674 56.718 C 398.670 56.700,398.517 56.715,398.333 56.750 C 398.026 56.809,397.853 56.095,397.980 55.292 C 397.991 55.223,397.906 55.185,397.792 55.208 C 397.677 55.231,397.602 55.156,397.625 55.042 C 397.648 54.927,397.575 54.852,397.462 54.875 C 397.350 54.898,397.232 54.748,397.201 54.542 C 397.169 54.335,397.074 54.167,396.988 54.167 C 396.807 54.167,396.165 53.553,396.171 53.385 C 396.174 53.322,396.050 53.252,395.896 53.230 C 395.593 53.185,395.340 52.874,395.336 52.542 C 395.334 52.427,395.277 52.342,395.208 52.353 C 394.870 52.407,394.698 52.304,394.618 52.000 C 394.567 51.805,394.391 51.667,394.194 51.667 C 393.971 51.667,393.838 51.540,393.803 51.292 C 393.755 50.950,393.646 50.912,392.584 50.860 C 391.426 50.804,391.118 50.653,391.283 50.223 C 391.354 50.039,390.286 50.000,385.177 50.000 C 380.320 50.000,378.991 50.045,379.012 50.208 M312.833 54.833 C 312.833 56.974,312.769 58.353,312.667 58.417 C 312.557 58.484,312.500 57.248,312.500 54.833 C 312.500 52.418,312.557 51.183,312.667 51.250 C 312.769 51.313,312.833 52.693,312.833 54.833 M81.333 52.750 C 81.333 53.083,81.417 53.167,81.750 53.167 C 82.086 53.167,82.167 53.249,82.167 53.595 C 82.167 53.947,82.226 54.004,82.501 53.916 C 82.708 53.851,82.864 53.894,82.912 54.030 C 83.222 54.912,83.447 72.746,83.153 73.100 C 83.013 73.268,83.011 73.333,83.146 73.333 C 83.249 73.333,83.333 73.413,83.333 73.510 C 83.333 73.607,83.265 73.644,83.182 73.593 C 83.099 73.542,83.034 73.781,83.038 74.125 C 83.069 76.856,83.023 77.167,82.583 77.167 C 82.250 77.167,82.167 77.250,82.167 77.583 C 82.167 77.991,82.139 78.000,80.917 78.000 L 79.667 78.000 79.667 77.405 C 79.667 76.822,79.368 76.333,79.012 76.333 C 78.813 76.333,78.769 75.804,78.824 74.107 C 78.848 73.367,78.802 73.000,78.692 73.068 C 78.599 73.125,78.469 73.084,78.402 72.977 C 78.327 72.855,78.354 72.826,78.474 72.901 C 78.757 73.075,78.709 72.743,78.417 72.500 C 77.992 72.148,78.046 59.061,78.472 58.926 C 78.744 58.839,78.779 58.615,78.792 56.883 C 78.806 55.088,78.836 54.916,79.171 54.663 C 79.396 54.494,79.551 54.173,79.579 53.820 C 79.610 53.423,79.716 53.232,79.927 53.190 C 80.094 53.157,80.372 52.951,80.544 52.732 C 80.956 52.208,81.333 52.217,81.333 52.750 M113.801 52.958 C 113.946 53.073,114.312 53.167,114.615 53.167 C 115.139 53.167,115.167 53.198,115.180 53.792 C 115.204 54.852,115.333 55.398,115.673 55.868 C 116.202 56.598,116.182 75.473,115.653 75.803 C 115.448 75.931,115.345 76.123,115.401 76.269 C 115.455 76.409,115.424 76.473,115.331 76.415 C 115.236 76.356,115.167 76.540,115.167 76.852 C 115.167 77.725,114.781 78.000,113.558 78.000 C 112.541 78.000,112.500 77.984,112.500 77.583 C 112.500 77.278,112.411 77.167,112.167 77.167 C 111.967 77.167,111.826 77.050,111.816 76.875 C 111.806 76.715,111.781 76.290,111.758 75.931 C 111.732 75.498,111.598 75.180,111.359 74.987 L 111.000 74.697 111.000 65.817 C 111.000 57.075,111.005 56.932,111.344 56.572 C 111.662 56.234,111.760 55.701,111.823 53.964 C 111.830 53.781,111.923 53.711,112.081 53.772 C 112.242 53.834,112.385 53.720,112.489 53.447 C 112.608 53.132,112.734 53.049,112.991 53.116 C 113.276 53.190,113.336 53.125,113.346 52.728 C 113.354 52.465,113.400 52.362,113.449 52.500 C 113.498 52.637,113.657 52.844,113.801 52.958 M385.261 53.167 C 385.644 53.167,385.758 53.488,385.652 54.273 C 385.645 54.332,385.738 54.443,385.861 54.520 C 386.014 54.618,386.021 54.662,385.884 54.664 C 385.644 54.667,385.911 55.592,386.274 56.013 C 386.446 56.214,386.500 56.993,386.500 59.305 L 386.500 62.333 384.417 62.333 L 382.333 62.333 382.333 59.423 C 382.333 56.669,382.352 56.502,382.671 56.331 C 382.857 56.231,382.969 56.084,382.919 56.003 C 382.869 55.922,382.909 55.806,383.009 55.745 C 383.108 55.683,383.177 55.397,383.161 55.108 C 383.112 54.187,383.159 54.025,383.513 53.913 C 383.703 53.852,383.818 53.762,383.768 53.713 C 383.561 53.505,384.007 53.033,384.331 53.118 C 384.606 53.190,384.671 53.120,384.692 52.728 L 384.717 52.250 384.786 52.708 C 384.840 53.064,384.947 53.167,385.261 53.167 M350.197 53.542 C 350.231 53.783,350.384 53.936,350.625 53.970 C 350.865 54.004,351.000 54.138,351.000 54.342 C 351.000 54.543,351.154 54.699,351.417 54.765 C 351.830 54.869,351.910 55.092,351.841 55.952 C 351.819 56.222,351.927 56.350,352.239 56.429 L 352.667 56.536 352.667 65.268 C 352.667 74.607,352.705 74.138,351.958 74.020 C 351.890 74.009,351.842 74.056,351.853 74.125 C 351.975 74.900,351.803 75.472,351.417 75.568 C 351.148 75.636,351.000 75.790,351.000 76.003 C 351.000 76.340,350.901 76.364,349.500 76.364 C 349.225 76.364,348.902 76.357,348.782 76.348 C 348.662 76.340,348.493 76.028,348.407 75.655 C 348.321 75.282,348.176 75.000,348.084 75.030 C 347.993 75.059,347.942 75.185,347.971 75.308 C 347.999 75.432,347.947 75.487,347.855 75.430 C 347.763 75.373,347.687 75.197,347.687 75.038 C 347.638 62.331,347.683 56.097,347.826 55.925 C 347.920 55.812,347.944 55.666,347.879 55.601 C 347.813 55.536,347.890 55.532,348.049 55.593 C 348.275 55.680,348.313 55.640,348.224 55.408 C 348.142 55.196,348.169 55.149,348.319 55.241 C 348.467 55.333,348.519 55.255,348.496 54.977 C 348.432 54.211,348.503 54.023,348.875 53.969 C 349.152 53.930,349.240 53.818,349.210 53.541 C 349.152 52.989,350.118 52.989,350.197 53.542 M149.702 54.370 C 149.671 54.559,149.799 54.693,150.077 54.763 C 150.532 54.878,150.579 55.083,150.529 56.735 C 150.516 57.185,150.616 57.881,150.752 58.282 C 150.909 58.743,151.000 59.650,151.000 60.746 C 151.000 61.722,151.073 62.525,151.167 62.583 C 151.266 62.645,151.333 63.693,151.333 65.167 C 151.333 66.640,151.266 67.689,151.167 67.750 C 151.073 67.808,151.000 68.611,151.000 69.587 C 151.000 70.603,150.905 71.617,150.770 72.036 C 150.644 72.429,150.538 73.451,150.535 74.307 C 150.530 75.652,150.482 75.915,150.181 76.234 C 149.990 76.438,149.833 76.726,149.833 76.874 C 149.833 77.025,149.671 77.167,149.465 77.197 C 149.249 77.228,149.060 77.402,149.007 77.620 C 148.938 77.901,148.857 77.952,148.667 77.831 C 148.501 77.725,148.487 77.671,148.625 77.669 C 148.740 77.668,148.833 77.587,148.833 77.490 C 148.833 77.393,148.758 77.360,148.667 77.417 C 148.575 77.473,148.499 77.421,148.497 77.302 C 148.496 77.143,148.451 77.152,148.333 77.333 C 148.226 77.500,148.171 77.514,148.169 77.375 C 148.168 77.255,147.954 77.167,147.667 77.167 C 147.283 77.167,147.167 77.091,147.167 76.843 C 147.167 76.665,147.084 76.468,146.982 76.406 C 146.851 76.325,146.857 76.255,147.004 76.164 C 147.225 76.027,147.088 75.667,146.814 75.667 C 146.722 75.667,146.701 75.753,146.766 75.859 C 146.840 75.979,146.812 76.006,146.690 75.931 C 146.582 75.865,146.538 75.740,146.590 75.655 C 146.643 75.570,146.607 75.500,146.510 75.500 C 146.407 75.500,146.333 75.114,146.333 74.573 C 146.333 73.942,146.275 73.683,146.150 73.760 C 146.020 73.841,146.021 73.773,146.154 73.524 C 146.376 73.108,146.335 60.451,146.109 59.917 C 145.999 59.655,146.007 59.637,146.148 59.833 C 146.283 60.020,146.329 59.741,146.331 58.726 C 146.333 57.419,146.349 57.366,146.750 57.265 C 147.114 57.174,147.167 57.069,147.167 56.440 C 147.167 55.834,147.232 55.690,147.583 55.530 C 147.813 55.426,148.000 55.226,148.000 55.087 C 148.000 54.866,148.303 54.750,148.708 54.814 C 148.777 54.824,148.824 54.777,148.814 54.708 C 148.728 54.165,148.858 53.981,149.292 54.031 C 149.618 54.068,149.736 54.166,149.702 54.370 M272.019 55.039 C 272.378 55.289,272.385 55.317,272.094 55.325 C 271.803 55.332,271.815 55.379,272.219 55.801 L 272.667 56.268 272.667 67.134 L 272.667 78.000 270.167 78.000 L 267.667 78.000 267.667 68.833 C 267.667 60.730,267.696 59.667,267.921 59.667 C 268.211 59.667,268.493 59.042,268.461 58.470 C 268.404 57.469,268.490 57.195,268.833 57.285 C 269.040 57.339,269.177 57.286,269.195 57.144 C 269.226 56.895,269.273 56.413,269.310 55.958 C 269.325 55.765,269.473 55.667,269.750 55.667 C 270.080 55.667,270.167 55.583,270.167 55.261 C 270.167 54.925,270.261 54.845,270.708 54.798 C 271.488 54.716,271.579 54.733,272.019 55.039 M78.462 65.683 C 78.437 69.358,78.473 72.400,78.542 72.442 C 78.610 72.485,78.667 69.478,78.667 65.760 C 78.667 62.042,78.631 59.000,78.587 59.000 C 78.543 59.000,78.487 62.007,78.462 65.683 M146.167 66.750 C 146.167 70.724,146.106 73.018,146.000 73.083 C 145.890 73.151,145.833 70.998,145.833 66.750 C 145.833 62.502,145.890 60.349,146.000 60.417 C 146.106 60.482,146.167 62.776,146.167 66.750 M312.667 63.750 C 312.782 63.889,312.800 64.000,312.707 64.000 C 312.616 64.000,312.447 63.887,312.333 63.750 C 312.218 63.611,312.200 63.500,312.293 63.500 C 312.384 63.500,312.553 63.612,312.667 63.750 M314.500 69.760 C 314.500 70.364,314.427 70.833,314.333 70.833 C 314.238 70.833,314.167 70.330,314.167 69.657 C 314.167 68.915,314.228 68.518,314.333 68.583 C 314.425 68.640,314.500 69.169,314.500 69.760 M146.167 86.177 C 146.167 89.392,146.107 91.167,146.000 91.167 C 145.893 91.167,145.833 89.358,145.833 86.073 C 145.833 82.720,145.890 81.016,146.000 81.083 C 146.105 81.148,146.167 83.030,146.167 86.177 " stroke="none" fill="#10e830" fill-rule="evenodd"></path><path id="path5" d="M232.083 36.794 C 231.412 37.287,230.833 38.227,230.833 38.826 C 230.833 40.161,231.235 40.440,231.282 39.137 C 231.302 38.573,231.398 38.227,231.560 38.136 C 231.697 38.060,231.893 37.740,231.997 37.426 C 232.120 37.052,232.312 36.829,232.551 36.783 C 232.877 36.720,232.881 36.710,232.583 36.692 C 232.400 36.681,232.175 36.727,232.083 36.794 " stroke="none" fill="#78f28a" fill-rule="evenodd"></path></g></svg>